v 0.00856 0.00300 0.00000
v 0.00791 0.00162 -0.00385
v 0.00605 0.00045 -0.00712
v 0.00328 -0.00034 -0.00931
v 0.00000 -0.00061 -0.01007
v -0.00328 -0.00034 -0.00931
v -0.00605 0.00045 -0.00712
v -0.00791 0.00162 -0.00385
v -0.00856 0.00300 -0.00000
v -0.00791 0.00438 0.00385
v -0.00605 0.00555 0.00712
v -0.00328 0.00634 0.00931
v -0.00000 0.00661 0.01007
v 0.00328 0.00634 0.00931
v 0.00605 0.00555 0.00712
v 0.00791 0.00438 0.00385
v 0.00848 0.00385 -0.00030
v 0.00783 0.00248 -0.00412
v 0.00600 0.00132 -0.00736
v 0.00324 0.00055 -0.00952
v 0.00000 0.00028 -0.01028
v -0.00324 0.00055 -0.00952
v -0.00600 0.00132 -0.00736
v -0.00783 0.00248 -0.00412
v -0.00848 0.00385 -0.00030
v -0.00783 0.00521 0.00352
v -0.00600 0.00637 0.00675
v -0.00324 0.00715 0.00892
v -0.00000 0.00742 0.00968
v 0.00324 0.00715 0.00892
v 0.00600 0.00637 0.00675
v 0.00783 0.00521 0.00352
v 0.00840 0.00469 -0.00061
v 0.00776 0.00335 -0.00439
v 0.00594 0.00221 -0.00760
v 0.00321 0.00145 -0.00975
v 0.00000 0.00119 -0.01050
v -0.00321 0.00145 -0.00975
v -0.00594 0.00221 -0.00760
v -0.00776 0.00335 -0.00439
v -0.00840 0.00469 -0.00061
v -0.00776 0.00604 0.00318
v -0.00594 0.00718 0.00639
v -0.00321 0.00794 0.00853
v -0.00000 0.00820 0.00929
v 0.00321 0.00794 0.00853
v 0.00594 0.00718 0.00639
v 0.00776 0.00604 0.00318
v 0.00832 0.00554 -0.00090
v 0.00768 0.00423 -0.00466
v 0.00588 0.00312 -0.00784
v 0.00318 0.00237 -0.00997
v 0.00000 0.00211 -0.01072
v -0.00318 0.00237 -0.00997
v -0.00588 0.00312 -0.00784
v -0.00768 0.00423 -0.00466
v -0.00832 0.00554 -0.00090
v -0.00768 0.00685 0.00285
v -0.00588 0.00797 0.00603
v -0.00318 0.00871 0.00816
v -0.00000 0.00897 0.00891
v 0.00318 0.00871 0.00816
v 0.00588 0.00797 0.00603
v 0.00768 0.00685 0.00285
v 0.00823 0.00639 -0.00120
v 0.00761 0.00511 -0.00492
v 0.00582 0.00403 -0.00808
v 0.00315 0.00331 -0.01020
v 0.00000 0.00306 -0.01094
v -0.00315 0.00331 -0.01020
v -0.00582 0.00403 -0.00808
v -0.00761 0.00511 -0.00492
v -0.00823 0.00639 -0.00120
v -0.00761 0.00767 0.00253
v -0.00582 0.00875 0.00569
v -0.00315 0.00947 0.00780
v -0.00000 0.00972 0.00854
v 0.00315 0.00947 0.00780
v 0.00582 0.00875 0.00569
v 0.00761 0.00767 0.00253
v 0.00815 0.00724 -0.00148
v 0.00753 0.00601 -0.00518
v 0.00576 0.00496 -0.00832
v 0.00312 0.00426 -0.01042
v 0.00000 0.00402 -0.01115
v -0.00312 0.00426 -0.01042
v -0.00576 0.00496 -0.00832
v -0.00753 0.00601 -0.00518
v -0.00815 0.00724 -0.00148
v -0.00753 0.00847 0.00221
v -0.00576 0.00951 0.00535
v -0.00312 0.01021 0.00745
v -0.00000 0.01046 0.00818
v 0.00312 0.01021 0.00745
v 0.00576 0.00951 0.00535
v 0.00753 0.00847 0.00221
v 0.00807 0.00808 -0.00176
v 0.00745 0.00690 -0.00544
v 0.00571 0.00590 -0.00855
v 0.00309 0.00523 -0.01063
v 0.00000 0.00499 -0.01136
v -0.00309 0.00523 -0.01063
v -0.00571 0.00590 -0.00855
v -0.00745 0.00690 -0.00544
v -0.00807 0.00808 -0.00176
v -0.00745 0.00927 0.00191
v -0.00571 0.01027 0.00503
v -0.00309 0.01094 0.00711
v -0.00000 0.01118 0.00784
v 0.00309 0.01094 0.00711
v 0.00571 0.01027 0.00503
v 0.00745 0.00927 0.00191
v 0.00798 0.00893 -0.00203
v 0.00738 0.00780 -0.00568
v 0.00565 0.00685 -0.00877
v 0.00306 0.00621 -0.01084
v 0.00000 0.00599 -0.01157
v -0.00306 0.00621 -0.01084
v -0.00565 0.00685 -0.00877
v -0.00738 0.00780 -0.00568
v -0.00798 0.00893 -0.00203
v -0.00738 0.01006 0.00162
v -0.00565 0.01102 0.00471
v -0.00306 0.01165 0.00678
v -0.00000 0.01188 0.00751
v 0.00306 0.01165 0.00678
v 0.00565 0.01102 0.00471
v 0.00738 0.01006 0.00162
v 0.00790 0.00978 -0.00229
v 0.00730 0.00871 -0.00591
v 0.00559 0.00781 -0.00899
v 0.00302 0.00720 -0.01104
v 0.00000 0.00699 -0.01176
v -0.00302 0.00720 -0.01104
v -0.00559 0.00781 -0.00899
v -0.00730 0.00871 -0.00591
v -0.00790 0.00978 -0.00229
v -0.00730 0.01085 0.00134
v -0.00559 0.01175 0.00441
v -0.00302 0.01236 0.00647
v -0.00000 0.01257 0.00719
v 0.00302 0.01236 0.00647
v 0.00559 0.01175 0.00441
v 0.00730 0.01085 0.00134
v 0.00782 0.01063 -0.00253
v 0.00722 0.00963 -0.00613
v 0.00553 0.00878 -0.00919
v 0.00299 0.00821 -0.01123
v 0.00000 0.00801 -0.01194
v -0.00299 0.00821 -0.01123
v -0.00553 0.00878 -0.00919
v -0.00722 0.00963 -0.00613
v -0.00782 0.01063 -0.00253
v -0.00722 0.01163 0.00107
v -0.00553 0.01248 0.00413
v -0.00299 0.01304 0.00617
v -0.00000 0.01324 0.00688
v 0.00299 0.01304 0.00617
v 0.00553 0.01248 0.00413
v 0.00722 0.01163 0.00107
v 0.00773 0.01147 -0.00276
v 0.00714 0.01054 -0.00634
v 0.00547 0.00976 -0.00937
v 0.00296 0.00923 -0.01140
v 0.00000 0.00904 -0.01211
v -0.00296 0.00923 -0.01140
v -0.00547 0.00976 -0.00937
v -0.00714 0.01054 -0.00634
v -0.00773 0.01147 -0.00276
v -0.00714 0.01240 0.00082
v -0.00547 0.01319 0.00386
v -0.00296 0.01372 0.00588
v -0.00000 0.01390 0.00660
v 0.00296 0.01372 0.00588
v 0.00547 0.01319 0.00386
v 0.00714 0.01240 0.00082
v 0.00765 0.01232 -0.00297
v 0.00706 0.01147 -0.00653
v 0.00541 0.01074 -0.00954
v 0.00293 0.01026 -0.01155
v 0.00000 0.01009 -0.01226
v -0.00293 0.01026 -0.01155
v -0.00541 0.01074 -0.00954
v -0.00706 0.01147 -0.00653
v -0.00765 0.01232 -0.00297
v -0.00706 0.01318 0.00059
v -0.00541 0.01390 0.00360
v -0.00293 0.01438 0.00562
v -0.00000 0.01455 0.00632
v 0.00293 0.01438 0.00562
v 0.00541 0.01390 0.00360
v 0.00706 0.01318 0.00059
v 0.00756 0.01317 -0.00316
v 0.00698 0.01239 -0.00670
v 0.00535 0.01174 -0.00969
v 0.00289 0.01130 -0.01169
v 0.00000 0.01114 -0.01239
v -0.00289 0.01130 -0.01169
v -0.00535 0.01174 -0.00969
v -0.00698 0.01239 -0.00670
v -0.00756 0.01317 -0.00316
v -0.00698 0.01394 0.00037
v -0.00535 0.01460 0.00336
v -0.00289 0.01504 0.00536
v -0.00000 0.01519 0.00606
v 0.00289 0.01504 0.00536
v 0.00535 0.01460 0.00336
v 0.00698 0.01394 0.00037
v 0.00747 0.01402 -0.00334
v 0.00690 0.01333 -0.00685
v 0.00528 0.01274 -0.00982
v 0.00286 0.01235 -0.01181
v 0.00000 0.01221 -0.01251
v -0.00286 0.01235 -0.01181
v -0.00528 0.01274 -0.00982
v -0.00690 0.01333 -0.00685
v -0.00747 0.01402 -0.00334
v -0.00690 0.01471 0.00017
v -0.00528 0.01529 0.00314
v -0.00286 0.01569 0.00513
v -0.00000 0.01582 0.00582
v 0.00286 0.01569 0.00513
v 0.00528 0.01529 0.00314
v 0.00690 0.01471 0.00017
v 0.00739 0.01486 -0.00350
v 0.00682 0.01426 -0.00698
v 0.00522 0.01375 -0.00993
v 0.00283 0.01340 -0.01190
v 0.00000 0.01328 -0.01259
v -0.00283 0.01340 -0.01190
v -0.00522 0.01375 -0.00993
v -0.00682 0.01426 -0.00698
v -0.00739 0.01486 -0.00350
v -0.00682 0.01547 -0.00002
v -0.00522 0.01598 0.00293
v -0.00283 0.01632 0.00490
v -0.00000 0.01645 0.00560
v 0.00283 0.01632 0.00490
v 0.00522 0.01598 0.00293
v 0.00682 0.01547 -0.00002
v 0.00730 0.01571 -0.00364
v 0.00674 0.01520 -0.00709
v 0.00516 0.01476 -0.01002
v 0.00279 0.01447 -0.01197
v 0.00000 0.01436 -0.01266
v -0.00279 0.01447 -0.01197
v -0.00516 0.01476 -0.01002
v -0.00674 0.01520 -0.00709
v -0.00730 0.01571 -0.00364
v -0.00674 0.01623 -0.00018
v -0.00516 0.01667 0.00274
v -0.00279 0.01696 0.00470
v -0.00000 0.01706 0.00539
v 0.00279 0.01696 0.00470
v 0.00516 0.01667 0.00274
v 0.00674 0.01623 -0.00018
v 0.00721 0.01656 -0.00375
v 0.00666 0.01613 -0.00717
v 0.00510 0.01577 -0.01008
v 0.00276 0.01553 -0.01201
v 0.00000 0.01545 -0.01270
v -0.00276 0.01553 -0.01201
v -0.00510 0.01577 -0.01008
v -0.00666 0.01613 -0.00717
v -0.00721 0.01656 -0.00375
v -0.00666 0.01698 -0.00033
v -0.00510 0.01734 0.00257
v -0.00276 0.01759 0.00451
v -0.00000 0.01767 0.00519
v 0.00276 0.01759 0.00451
v 0.00510 0.01734 0.00257
v 0.00666 0.01698 -0.00033
v 0.00712 0.01741 -0.00385
v 0.00658 0.01707 -0.00724
v 0.00503 0.01679 -0.01011
v 0.00272 0.01660 -0.01203
v 0.00000 0.01654 -0.01270
v -0.00272 0.01660 -0.01203
v -0.00503 0.01679 -0.01011
v -0.00658 0.01707 -0.00724
v -0.00712 0.01741 -0.00385
v -0.00658 0.01774 -0.00046
v -0.00503 0.01802 0.00242
v -0.00272 0.01821 0.00434
v -0.00000 0.01828 0.00501
v 0.00272 0.01821 0.00434
v 0.00503 0.01802 0.00242
v 0.00658 0.01774 -0.00046
v 0.00703 0.01825 -0.00392
v 0.00650 0.01801 -0.00727
v 0.00497 0.01781 -0.01012
v 0.00269 0.01767 -0.01202
v 0.00000 0.01762 -0.01268
v -0.00269 0.01767 -0.01202
v -0.00497 0.01781 -0.01012
v -0.00650 0.01801 -0.00727
v -0.00703 0.01825 -0.00392
v -0.00650 0.01850 -0.00056
v -0.00497 0.01870 0.00228
v -0.00269 0.01884 0.00418
v -0.00000 0.01888 0.00485
v 0.00269 0.01884 0.00418
v 0.00497 0.01870 0.00228
v 0.00650 0.01850 -0.00056
v 0.00694 0.01910 -0.00397
v 0.00641 0.01895 -0.00729
v 0.00491 0.01883 -0.01010
v 0.00266 0.01874 -0.01198
v 0.00000 0.01871 -0.01264
v -0.00266 0.01874 -0.01198
v -0.00491 0.01883 -0.01010
v -0.00641 0.01895 -0.00729
v -0.00694 0.01910 -0.00397
v -0.00641 0.01925 -0.00065
v -0.00491 0.01938 0.00216
v -0.00266 0.01946 0.00404
v -0.00000 0.01949 0.00470
v 0.00266 0.01946 0.00404
v 0.00491 0.01938 0.00216
v 0.00641 0.01925 -0.00065
v 0.00685 0.01995 -0.00400
v 0.00633 0.01989 -0.00727
v 0.00484 0.01984 -0.01005
v 0.00262 0.01981 -0.01190
v 0.00000 0.01980 -0.01256
v -0.00262 0.01981 -0.01190
v -0.00484 0.01984 -0.01005
v -0.00633 0.01989 -0.00727
v -0.00685 0.01995 -0.00400
v -0.00633 0.02001 -0.00072
v -0.00484 0.02006 0.00206
v -0.00262 0.02009 0.00391
v -0.00000 0.02010 0.00457
v 0.00262 0.02009 0.00391
v 0.00484 0.02006 0.00206
v 0.00633 0.02001 -0.00072
v 0.00676 0.02080 -0.00400
v 0.00624 0.02083 -0.00723
v 0.00478 0.02085 -0.00997
v 0.00259 0.02087 -0.01180
v 0.00000 0.02088 -0.01245
v -0.00259 0.02087 -0.01180
v -0.00478 0.02085 -0.00997
v -0.00624 0.02083 -0.00723
v -0.00676 0.02080 -0.00400
v -0.00624 0.02077 -0.00077
v -0.00478 0.02074 0.00197
v -0.00259 0.02072 0.00381
v -0.00000 0.02072 0.00445
v 0.00259 0.02072 0.00381
v 0.00478 0.02074 0.00197
v 0.00624 0.02077 -0.00077
v 0.00667 0.02164 -0.00398
v 0.00616 0.02176 -0.00717
v 0.00471 0.02186 -0.00987
v 0.00255 0.02193 -0.01167
v 0.00000 0.02195 -0.01230
v -0.00255 0.02193 -0.01167
v -0.00471 0.02186 -0.00987
v -0.00616 0.02176 -0.00717
v -0.00667 0.02164 -0.00398
v -0.00616 0.02153 -0.00079
v -0.00471 0.02143 0.00191
v -0.00255 0.02136 0.00371
v -0.00000 0.02134 0.00435
v 0.00255 0.02136 0.00371
v 0.00471 0.02143 0.00191
v 0.00616 0.02153 -0.00079
v 0.00657 0.02249 -0.00394
v 0.00607 0.02269 -0.00707
v 0.00465 0.02286 -0.00973
v 0.00251 0.02297 -0.01151
v 0.00000 0.02301 -0.01213
v -0.00251 0.02297 -0.01151
v -0.00465 0.02286 -0.00973
v -0.00607 0.02269 -0.00707
v -0.00657 0.02249 -0.00394
v -0.00607 0.02229 -0.00080
v -0.00465 0.02212 0.00186
v -0.00251 0.02201 0.00364
v -0.00000 0.02197 0.00426
v 0.00251 0.02201 0.00364
v 0.00465 0.02212 0.00186
v 0.00607 0.02229 -0.00080
v 0.00648 0.02334 -0.00387
v 0.00598 0.02362 -0.00696
v 0.00458 0.02385 -0.00957
v 0.00248 0.02401 -0.01132
v 0.00000 0.02407 -0.01194
v -0.00248 0.02401 -0.01132
v -0.00458 0.02385 -0.00957
v -0.00598 0.02362 -0.00696
v -0.00648 0.02334 -0.00387
v -0.00598 0.02306 -0.00078
v -0.00458 0.02282 0.00183
v -0.00248 0.02267 0.00358
v -0.00000 0.02261 0.00419
v 0.00248 0.02267 0.00358
v 0.00458 0.02282 0.00183
v 0.00598 0.02306 -0.00078
v 0.00638 0.02419 -0.00378
v 0.00590 0.02454 -0.00682
v 0.00451 0.02484 -0.00939
v 0.00244 0.02504 -0.01111
v 0.00000 0.02511 -0.01171
v -0.00244 0.02504 -0.01111
v -0.00451 0.02484 -0.00939
v -0.00590 0.02454 -0.00682
v -0.00638 0.02419 -0.00378
v -0.00590 0.02383 -0.00075
v -0.00451 0.02353 0.00182
v -0.00244 0.02333 0.00354
v -0.00000 0.02326 0.00414
v 0.00244 0.02333 0.00354
v 0.00451 0.02353 0.00182
v 0.00590 0.02383 -0.00075
v 0.00629 0.02503 -0.00367
v 0.00581 0.02546 -0.00665
v 0.00445 0.02582 -0.00918
v 0.00241 0.02605 -0.01086
v 0.00000 0.02614 -0.01145
v -0.00241 0.02605 -0.01086
v -0.00445 0.02582 -0.00918
v -0.00581 0.02546 -0.00665
v -0.00629 0.02503 -0.00367
v -0.00581 0.02461 -0.00070
v -0.00445 0.02425 0.00183
v -0.00241 0.02401 0.00352
v -0.00000 0.02393 0.00411
v 0.00241 0.02401 0.00352
v 0.00445 0.02425 0.00183
v 0.00581 0.02461 -0.00070
v 0.00619 0.02588 -0.00354
v 0.00572 0.02637 -0.00646
v 0.00438 0.02678 -0.00894
v 0.00237 0.02706 -0.01060
v 0.00000 0.02715 -0.01118
v -0.00237 0.02706 -0.01060
v -0.00438 0.02678 -0.00894
v -0.00572 0.02637 -0.00646
v -0.00619 0.02588 -0.00354
v -0.00572 0.02539 -0.00062
v -0.00438 0.02498 0.00186
v -0.00237 0.02471 0.00351
v -0.00000 0.02461 0.00409
v 0.00237 0.02471 0.00351
v 0.00438 0.02498 0.00186
v 0.00572 0.02539 -0.00062
v 0.00609 0.02673 -0.00339
v 0.00563 0.02727 -0.00625
v 0.00431 0.02774 -0.00868
v 0.00233 0.02804 -0.01030
v 0.00000 0.02815 -0.01087
v -0.00233 0.02804 -0.01030
v -0.00431 0.02774 -0.00868
v -0.00563 0.02727 -0.00625
v -0.00609 0.02673 -0.00339
v -0.00563 0.02618 -0.00053
v -0.00431 0.02572 0.00190
v -0.00233 0.02541 0.00352
v -0.00000 0.02531 0.00409
v 0.00233 0.02541 0.00352
v 0.00431 0.02572 0.00190
v 0.00563 0.02618 -0.00053
v 0.00600 0.02758 -0.00322
v 0.00554 0.02817 -0.00603
v 0.00424 0.02868 -0.00840
v 0.00229 0.02902 -0.00999
v 0.00000 0.02914 -0.01055
v -0.00229 0.02902 -0.00999
v -0.00424 0.02868 -0.00840
v -0.00554 0.02817 -0.00603
v -0.00600 0.02758 -0.00322
v -0.00554 0.02698 -0.00041
v -0.00424 0.02647 0.00196
v -0.00229 0.02614 0.00355
v -0.00000 0.02602 0.00411
v 0.00229 0.02614 0.00355
v 0.00424 0.02647 0.00196
v 0.00554 0.02698 -0.00041
v 0.00590 0.02842 -0.00303
v 0.00545 0.02907 -0.00578
v 0.00417 0.02961 -0.00810
v 0.00226 0.02998 -0.00966
v 0.00000 0.03010 -0.01021
v -0.00226 0.02998 -0.00966
v -0.00417 0.02961 -0.00810
v -0.00545 0.02907 -0.00578
v -0.00590 0.02842 -0.00303
v -0.00545 0.02778 -0.00028
v -0.00417 0.02724 0.00204
v -0.00226 0.02687 0.00360
v -0.00000 0.02674 0.00415
v 0.00226 0.02687 0.00360
v 0.00417 0.02724 0.00204
v 0.00545 0.02778 -0.00028
v 0.00580 0.02927 -0.00282
v 0.00535 0.02995 -0.00551
v 0.00410 0.03053 -0.00779
v 0.00222 0.03092 -0.00931
v 0.00000 0.03106 -0.00984
v -0.00222 0.03092 -0.00931
v -0.00410 0.03053 -0.00779
v -0.00535 0.02995 -0.00551
v -0.00580 0.02927 -0.00282
v -0.00535 0.02859 -0.00014
v -0.00410 0.02801 0.00214
v -0.00222 0.02762 0.00366
v -0.00000 0.02749 0.00420
v 0.00222 0.02762 0.00366
v 0.00410 0.02801 0.00214
v 0.00535 0.02859 -0.00014
v 0.00569 0.03012 -0.00260
v 0.00526 0.03084 -0.00523
v 0.00403 0.03144 -0.00746
v 0.00218 0.03185 -0.00894
v 0.00000 0.03199 -0.00947
v -0.00218 0.03185 -0.00894
v -0.00403 0.03144 -0.00746
v -0.00526 0.03084 -0.00523
v -0.00569 0.03012 -0.00260
v -0.00526 0.02940 0.00003
v -0.00403 0.02879 0.00226
v -0.00218 0.02839 0.00374
v -0.00000 0.02825 0.00427
v 0.00218 0.02839 0.00374
v 0.00403 0.02879 0.00226
v 0.00526 0.02940 0.00003
v 0.00559 0.03097 -0.00236
v 0.00517 0.03171 -0.00493
v 0.00395 0.03234 -0.00711
v 0.00214 0.03276 -0.00856
v 0.00000 0.03291 -0.00907
v -0.00214 0.03276 -0.00856
v -0.00395 0.03234 -0.00711
v -0.00517 0.03171 -0.00493
v -0.00559 0.03097 -0.00236
v -0.00517 0.03022 0.00021
v -0.00395 0.02959 0.00239
v -0.00214 0.02917 0.00384
v -0.00000 0.02902 0.00435
v 0.00214 0.02917 0.00384
v 0.00395 0.02959 0.00239
v 0.00517 0.03022 0.00021
v 0.00549 0.03181 -0.00211
v 0.00507 0.03258 -0.00462
v 0.00388 0.03323 -0.00675
v 0.00210 0.03366 -0.00817
v 0.00000 0.03381 -0.00867
v -0.00210 0.03366 -0.00817
v -0.00388 0.03323 -0.00675
v -0.00507 0.03258 -0.00462
v -0.00549 0.03181 -0.00211
v -0.00507 0.03105 0.00040
v -0.00388 0.03040 0.00253
v -0.00210 0.02997 0.00395
v -0.00000 0.02981 0.00445
v 0.00210 0.02997 0.00395
v 0.00388 0.03040 0.00253
v 0.00507 0.03105 0.00040
v 0.00538 0.03266 -0.00184
v 0.00497 0.03344 -0.00430
v 0.00381 0.03410 -0.00638
v 0.00206 0.03455 -0.00777
v 0.00000 0.03470 -0.00826
v -0.00206 0.03455 -0.00777
v -0.00381 0.03410 -0.00638
v -0.00497 0.03344 -0.00430
v -0.00538 0.03266 -0.00184
v -0.00497 0.03188 0.00061
v -0.00381 0.03122 0.00269
v -0.00206 0.03078 0.00408
v -0.00000 0.03062 0.00457
v 0.00206 0.03078 0.00408
v 0.00381 0.03122 0.00269
v 0.00497 0.03188 0.00061
v 0.00528 0.03351 -0.00157
v 0.00487 0.03430 -0.00397
v 0.00373 0.03497 -0.00600
v 0.00202 0.03542 -0.00736
v 0.00000 0.03558 -0.00783
v -0.00202 0.03542 -0.00736
v -0.00373 0.03497 -0.00600
v -0.00487 0.03430 -0.00397
v -0.00528 0.03351 -0.00157
v -0.00487 0.03272 0.00083
v -0.00373 0.03205 0.00286
v -0.00202 0.03160 0.00422
v -0.00000 0.03144 0.00469
v 0.00202 0.03160 0.00422
v 0.00373 0.03205 0.00286
v 0.00487 0.03272 0.00083
v 0.00517 0.03436 -0.00129
v 0.00478 0.03515 -0.00363
v 0.00365 0.03583 -0.00561
v 0.00198 0.03628 -0.00694
v 0.00000 0.03643 -0.00740
v -0.00198 0.03628 -0.00694
v -0.00365 0.03583 -0.00561
v -0.00478 0.03515 -0.00363
v -0.00517 0.03436 -0.00129
v -0.00478 0.03356 0.00106
v -0.00365 0.03289 0.00304
v -0.00198 0.03244 0.00437
v -0.00000 0.03228 0.00483
v 0.00198 0.03244 0.00437
v 0.00365 0.03289 0.00304
v 0.00478 0.03356 0.00106
v 0.00506 0.03520 -0.00099
v 0.00467 0.03600 -0.00328
v 0.00358 0.03667 -0.00522
v 0.00194 0.03712 -0.00651
v 0.00000 0.03728 -0.00697
v -0.00194 0.03712 -0.00651
v -0.00358 0.03667 -0.00522
v -0.00467 0.03600 -0.00328
v -0.00506 0.03520 -0.00099
v -0.00467 0.03441 0.00129
v -0.00358 0.03374 0.00323
v -0.00194 0.03329 0.00453
v -0.00000 0.03313 0.00498
v 0.00194 0.03329 0.00453
v 0.00358 0.03374 0.00323
v 0.00467 0.03441 0.00129
v 0.00495 0.03605 -0.00070
v 0.00457 0.03684 -0.00293
v 0.00350 0.03751 -0.00482
v 0.00189 0.03795 -0.00609
v 0.00000 0.03811 -0.00653
v -0.00189 0.03795 -0.00609
v -0.00350 0.03751 -0.00482
v -0.00457 0.03684 -0.00293
v -0.00495 0.03605 -0.00070
v -0.00457 0.03526 0.00154
v -0.00350 0.03459 0.00343
v -0.00189 0.03415 0.00469
v -0.00000 0.03399 0.00514
v 0.00189 0.03415 0.00469
v 0.00350 0.03459 0.00343
v 0.00457 0.03526 0.00154
v 0.00484 0.03690 -0.00039
v 0.00447 0.03768 -0.00257
v 0.00342 0.03834 -0.00442
v 0.00185 0.03878 -0.00566
v 0.00000 0.03893 -0.00609
v -0.00185 0.03878 -0.00566
v -0.00342 0.03834 -0.00442
v -0.00447 0.03768 -0.00257
v -0.00484 0.03690 -0.00039
v -0.00447 0.03612 0.00178
v -0.00342 0.03546 0.00363
v -0.00185 0.03502 0.00487
v -0.00000 0.03487 0.00530
v 0.00185 0.03502 0.00487
v 0.00342 0.03546 0.00363
v 0.00447 0.03612 0.00178
v 0.00472 0.03775 -0.00009
v 0.00436 0.03829 -0.00228
v 0.00334 0.03875 -0.00414
v 0.00181 0.03906 -0.00538
v 0.00000 0.03917 -0.00582
v -0.00181 0.03906 -0.00538
v -0.00334 0.03875 -0.00414
v -0.00436 0.03829 -0.00228
v -0.00472 0.03775 -0.00009
v -0.00436 0.03720 0.00210
v -0.00334 0.03674 0.00396
v -0.00181 0.03643 0.00520
v -0.00000 0.03633 0.00564
v 0.00181 0.03643 0.00520
v 0.00334 0.03674 0.00396
v 0.00436 0.03720 0.00210
v 0.00461 0.03859 0.00003
v 0.00426 0.03890 -0.00216
v 0.00326 0.03916 -0.00401
v 0.00176 0.03934 -0.00524
v 0.00000 0.03940 -0.00568
v -0.00176 0.03934 -0.00524
v -0.00326 0.03916 -0.00401
v -0.00426 0.03890 -0.00216
v -0.00461 0.03859 0.00003
v -0.00426 0.03829 0.00221
v -0.00326 0.03803 0.00406
v -0.00176 0.03785 0.00529
v -0.00000 0.03779 0.00573
v 0.00176 0.03785 0.00529
v 0.00326 0.03803 0.00406
v 0.00426 0.03829 0.00221
v 0.00449 0.03944 0.00015
v 0.00415 0.03987 -0.00196
v 0.00317 0.04024 -0.00374
v 0.00172 0.04048 -0.00493
v 0.00000 0.04057 -0.00535
v -0.00172 0.04048 -0.00493
v -0.00317 0.04024 -0.00374
v -0.00415 0.03987 -0.00196
v -0.00449 0.03944 0.00015
v -0.00415 0.03901 0.00225
v -0.00317 0.03864 0.00403
v -0.00172 0.03840 0.00522
v -0.00000 0.03831 0.00564
v 0.00172 0.03840 0.00522
v 0.00317 0.03864 0.00403
v 0.00415 0.03901 0.00225
v 0.00437 0.04029 0.00037
v 0.00403 0.04093 -0.00161
v 0.00309 0.04148 -0.00330
v 0.00167 0.04185 -0.00442
v 0.00000 0.04198 -0.00482
v -0.00167 0.04185 -0.00442
v -0.00309 0.04148 -0.00330
v -0.00403 0.04093 -0.00161
v -0.00437 0.04029 0.00037
v -0.00403 0.03964 0.00236
v -0.00309 0.03909 0.00404
v -0.00167 0.03873 0.00517
v -0.00000 0.03860 0.00556
v 0.00167 0.03873 0.00517
v 0.00309 0.03909 0.00404
v 0.00403 0.03964 0.00236
v 0.00424 0.04114 0.00070
v 0.00392 0.04196 -0.00116
v 0.00300 0.04266 -0.00273
v 0.00162 0.04313 -0.00378
v 0.00000 0.04330 -0.00415
v -0.00162 0.04313 -0.00378
v -0.00300 0.04266 -0.00273
v -0.00392 0.04196 -0.00116
v -0.00424 0.04114 0.00070
v -0.00392 0.04031 0.00255
v -0.00300 0.03961 0.00413
v -0.00162 0.03914 0.00518
v -0.00000 0.03897 0.00554
v 0.00162 0.03914 0.00518
v 0.00300 0.03961 0.00413
v 0.00392 0.04031 0.00255
v 0.00412 0.04198 0.00113
v 0.00381 0.04295 -0.00059
v 0.00291 0.04378 -0.00204
v 0.00158 0.04433 -0.00301
v 0.00000 0.04452 -0.00335
v -0.00158 0.04433 -0.00301
v -0.00291 0.04378 -0.00204
v -0.00381 0.04295 -0.00059
v -0.00412 0.04198 0.00113
v -0.00381 0.04101 0.00284
v -0.00291 0.04019 0.00430
v -0.00158 0.03964 0.00527
v -0.00000 0.03945 0.00561
v 0.00158 0.03964 0.00527
v 0.00291 0.04019 0.00430
v 0.00381 0.04101 0.00284
v 0.00399 0.04283 0.00166
v 0.00369 0.04391 0.00009
v 0.00282 0.04483 -0.00125
v 0.00153 0.04544 -0.00214
v 0.00000 0.04565 -0.00245
v -0.00153 0.04544 -0.00214
v -0.00282 0.04483 -0.00125
v -0.00369 0.04391 0.00009
v -0.00399 0.04283 0.00166
v -0.00369 0.04175 0.00323
v -0.00282 0.04083 0.00457
v -0.00153 0.04022 0.00546
v -0.00000 0.04001 0.00577
v 0.00153 0.04022 0.00546
v 0.00282 0.04083 0.00457
v 0.00369 0.04175 0.00323
v 0.00386 0.04368 0.00229
v 0.00356 0.04484 0.00086
v 0.00273 0.04582 -0.00036
v 0.00148 0.04648 -0.00117
v 0.00000 0.04671 -0.00146
v -0.00148 0.04648 -0.00117
v -0.00273 0.04582 -0.00036
v -0.00356 0.04484 0.00086
v -0.00386 0.04368 0.00229
v -0.00356 0.04252 0.00373
v -0.00273 0.04154 0.00495
v -0.00148 0.04088 0.00576
v -0.00000 0.04065 0.00604
v 0.00148 0.04088 0.00576
v 0.00273 0.04154 0.00495
v 0.00356 0.04252 0.00373
v 0.00372 0.04453 0.00303
v 0.00344 0.04574 0.00172
v 0.00263 0.04676 0.00062
v 0.00142 0.04745 -0.00012
v 0.00000 0.04769 -0.00038
v -0.00142 0.04745 -0.00012
v -0.00263 0.04676 0.00062
v -0.00344 0.04574 0.00172
v -0.00372 0.04453 0.00303
v -0.00344 0.04331 0.00433
v -0.00263 0.04229 0.00544
v -0.00142 0.04160 0.00618
v -0.00000 0.04136 0.00644
v 0.00142 0.04160 0.00618
v 0.00263 0.04229 0.00544
v 0.00344 0.04331 0.00433
v 0.00358 0.04537 0.00387
v 0.00331 0.04663 0.00270
v 0.00253 0.04770 0.00172
v 0.00137 0.04841 0.00106
v 0.00000 0.04867 0.00083
v -0.00137 0.04841 0.00106
v -0.00253 0.04770 0.00172
v -0.00331 0.04663 0.00270
v -0.00358 0.04537 0.00387
v -0.00331 0.04411 0.00503
v -0.00253 0.04304 0.00601
v -0.00137 0.04233 0.00667
v -0.00000 0.04208 0.00690
v 0.00137 0.04233 0.00667
v 0.00253 0.04304 0.00601
v 0.00331 0.04411 0.00503
v 0.00344 0.04616 0.00481
v 0.00318 0.04750 0.00384
v 0.00243 0.04863 0.00302
v 0.00132 0.04938 0.00248
v 0.00000 0.04965 0.00229
v -0.00132 0.04938 0.00248
v -0.00243 0.04863 0.00302
v -0.00318 0.04750 0.00384
v -0.00344 0.04616 0.00481
v -0.00318 0.04483 0.00577
v -0.00243 0.04370 0.00659
v -0.00132 0.04295 0.00713
v -0.00000 0.04268 0.00732
v 0.00132 0.04295 0.00713
v 0.00243 0.04370 0.00659
v 0.00318 0.04483 0.00577
v 0.00329 0.04681 0.00585
v 0.00304 0.04820 0.00513
v 0.00233 0.04939 0.00451
v 0.00126 0.05018 0.00411
v 0.00000 0.05046 0.00396
v -0.00126 0.05018 0.00411
v -0.00233 0.04939 0.00451
v -0.00304 0.04820 0.00513
v -0.00329 0.04681 0.00585
v -0.00304 0.04541 0.00657
v -0.00233 0.04422 0.00718
v -0.00126 0.04343 0.00759
v -0.00000 0.04315 0.00773
v 0.00126 0.04343 0.00759
v 0.00233 0.04422 0.00718
v 0.00304 0.04541 0.00657
v 0.00313 0.04729 0.00699
v 0.00289 0.04871 0.00650
v 0.00222 0.04991 0.00609
v 0.00120 0.05071 0.00581
v 0.00000 0.05100 0.00572
v -0.00120 0.05071 0.00581
v -0.00222 0.04991 0.00609
v -0.00289 0.04871 0.00650
v -0.00313 0.04729 0.00699
v -0.00289 0.04588 0.00748
v -0.00222 0.04467 0.00789
v -0.00120 0.04387 0.00817
v -0.00000 0.04359 0.00826
v 0.00120 0.04387 0.00817
v 0.00222 0.04467 0.00789
v 0.00289 0.04588 0.00748
v 0.00297 0.04763 0.00824
v 0.00274 0.04902 0.00796
v 0.00210 0.05020 0.00773
v 0.00114 0.05099 0.00757
v 0.00000 0.05127 0.00751
v -0.00114 0.05099 0.00757
v -0.00210 0.05020 0.00773
v -0.00274 0.04902 0.00796
v -0.00297 0.04763 0.00824
v -0.00274 0.04623 0.00851
v -0.00210 0.04505 0.00875
v -0.00114 0.04426 0.00890
v -0.00000 0.04399 0.00896
v 0.00114 0.04426 0.00890
v 0.00210 0.04505 0.00875
v 0.00274 0.04623 0.00851
v 0.00279 0.04781 0.00959
v 0.00258 0.04914 0.00949
v 0.00198 0.05027 0.00940
v 0.00107 0.05103 0.00935
v 0.00000 0.05129 0.00933
v -0.00107 0.05103 0.00935
v -0.00198 0.05027 0.00940
v -0.00258 0.04914 0.00949
v -0.00279 0.04781 0.00959
v -0.00258 0.04648 0.00968
v -0.00198 0.04535 0.00977
v -0.00107 0.04459 0.00983
v -0.00000 0.04433 0.00985
v 0.00107 0.04459 0.00983
v 0.00198 0.04535 0.00977
v 0.00258 0.04648 0.00968
v 0.00261 0.04784 0.01104
v 0.00241 0.04908 0.01108
v 0.00184 0.05014 0.01111
v 0.00100 0.05084 0.01113
v 0.00000 0.05109 0.01114
v -0.00100 0.05084 0.01113
v -0.00184 0.05014 0.01111
v -0.00241 0.04908 0.01108
v -0.00261 0.04784 0.01104
v -0.00241 0.04659 0.01100
v -0.00184 0.04553 0.01096
v -0.00100 0.04483 0.01094
v -0.00000 0.04458 0.01093
v 0.00100 0.04483 0.01094
v 0.00184 0.04553 0.01096
v 0.00241 0.04659 0.01100
v 0.00240 0.04771 0.01259
v 0.00221 0.04885 0.01273
v 0.00169 0.04981 0.01285
v 0.00092 0.05046 0.01293
v 0.00000 0.05068 0.01296
v -0.00092 0.05046 0.01293
v -0.00169 0.04981 0.01285
v -0.00221 0.04885 0.01273
v -0.00240 0.04771 0.01259
v -0.00221 0.04657 0.01245
v -0.00169 0.04561 0.01232
v -0.00092 0.04496 0.01224
v -0.00000 0.04474 0.01221
v 0.00092 0.04496 0.01224
v 0.00169 0.04561 0.01232
v 0.00221 0.04657 0.01245
v 0.00215 0.04743 0.01424
v 0.00199 0.04844 0.01445
v 0.00152 0.04929 0.01463
v 0.00082 0.04986 0.01475
v 0.00000 0.05006 0.01479
v -0.00082 0.04986 0.01475
v -0.00152 0.04929 0.01463
v -0.00199 0.04844 0.01445
v -0.00215 0.04743 0.01424
v -0.00199 0.04642 0.01403
v -0.00152 0.04557 0.01386
v -0.00082 0.04500 0.01374
v -0.00000 0.04480 0.01369
v 0.00082 0.04500 0.01374
v 0.00152 0.04557 0.01386
v 0.00199 0.04642 0.01403
v 0.00176 0.04700 0.01600
v 0.00163 0.04782 0.01620
v 0.00124 0.04851 0.01637
v 0.00067 0.04897 0.01649
v 0.00000 0.04914 0.01653
v -0.00067 0.04897 0.01649
v -0.00124 0.04851 0.01637
v -0.00163 0.04782 0.01620
v -0.00176 0.04700 0.01600
v -0.00163 0.04618 0.01580
v -0.00124 0.04549 0.01563
v -0.00067 0.04503 0.01551
v -0.00000 0.04486 0.01547
v 0.00067 0.04503 0.01551
v 0.00124 0.04549 0.01563
v 0.00163 0.04618 0.01580
v 0.00000 0.00300 0.00000
v 0.00000 0.04700 0.01600
f 1 17 18
f 1 18 2
f 2 18 19
f 2 19 3
f 3 19 20
f 3 20 4
f 4 20 21
f 4 21 5
f 5 21 22
f 5 22 6
f 6 22 23
f 6 23 7
f 7 23 24
f 7 24 8
f 8 24 25
f 8 25 9
f 9 25 26
f 9 26 10
f 10 26 27
f 10 27 11
f 11 27 28
f 11 28 12
f 12 28 29
f 12 29 13
f 13 29 30
f 13 30 14
f 14 30 31
f 14 31 15
f 15 31 32
f 15 32 16
f 16 32 17
f 16 17 1
f 17 33 34
f 17 34 18
f 18 34 35
f 18 35 19
f 19 35 36
f 19 36 20
f 20 36 37
f 20 37 21
f 21 37 38
f 21 38 22
f 22 38 39
f 22 39 23
f 23 39 40
f 23 40 24
f 24 40 41
f 24 41 25
f 25 41 42
f 25 42 26
f 26 42 43
f 26 43 27
f 27 43 44
f 27 44 28
f 28 44 45
f 28 45 29
f 29 45 46
f 29 46 30
f 30 46 47
f 30 47 31
f 31 47 48
f 31 48 32
f 32 48 33
f 32 33 17
f 33 49 50
f 33 50 34
f 34 50 51
f 34 51 35
f 35 51 52
f 35 52 36
f 36 52 53
f 36 53 37
f 37 53 54
f 37 54 38
f 38 54 55
f 38 55 39
f 39 55 56
f 39 56 40
f 40 56 57
f 40 57 41
f 41 57 58
f 41 58 42
f 42 58 59
f 42 59 43
f 43 59 60
f 43 60 44
f 44 60 61
f 44 61 45
f 45 61 62
f 45 62 46
f 46 62 63
f 46 63 47
f 47 63 64
f 47 64 48
f 48 64 49
f 48 49 33
f 49 65 66
f 49 66 50
f 50 66 67
f 50 67 51
f 51 67 68
f 51 68 52
f 52 68 69
f 52 69 53
f 53 69 70
f 53 70 54
f 54 70 71
f 54 71 55
f 55 71 72
f 55 72 56
f 56 72 73
f 56 73 57
f 57 73 74
f 57 74 58
f 58 74 75
f 58 75 59
f 59 75 76
f 59 76 60
f 60 76 77
f 60 77 61
f 61 77 78
f 61 78 62
f 62 78 79
f 62 79 63
f 63 79 80
f 63 80 64
f 64 80 65
f 64 65 49
f 65 81 82
f 65 82 66
f 66 82 83
f 66 83 67
f 67 83 84
f 67 84 68
f 68 84 85
f 68 85 69
f 69 85 86
f 69 86 70
f 70 86 87
f 70 87 71
f 71 87 88
f 71 88 72
f 72 88 89
f 72 89 73
f 73 89 90
f 73 90 74
f 74 90 91
f 74 91 75
f 75 91 92
f 75 92 76
f 76 92 93
f 76 93 77
f 77 93 94
f 77 94 78
f 78 94 95
f 78 95 79
f 79 95 96
f 79 96 80
f 80 96 81
f 80 81 65
f 81 97 98
f 81 98 82
f 82 98 99
f 82 99 83
f 83 99 100
f 83 100 84
f 84 100 101
f 84 101 85
f 85 101 102
f 85 102 86
f 86 102 103
f 86 103 87
f 87 103 104
f 87 104 88
f 88 104 105
f 88 105 89
f 89 105 106
f 89 106 90
f 90 106 107
f 90 107 91
f 91 107 108
f 91 108 92
f 92 108 109
f 92 109 93
f 93 109 110
f 93 110 94
f 94 110 111
f 94 111 95
f 95 111 112
f 95 112 96
f 96 112 97
f 96 97 81
f 97 113 114
f 97 114 98
f 98 114 115
f 98 115 99
f 99 115 116
f 99 116 100
f 100 116 117
f 100 117 101
f 101 117 118
f 101 118 102
f 102 118 119
f 102 119 103
f 103 119 120
f 103 120 104
f 104 120 121
f 104 121 105
f 105 121 122
f 105 122 106
f 106 122 123
f 106 123 107
f 107 123 124
f 107 124 108
f 108 124 125
f 108 125 109
f 109 125 126
f 109 126 110
f 110 126 127
f 110 127 111
f 111 127 128
f 111 128 112
f 112 128 113
f 112 113 97
f 113 129 130
f 113 130 114
f 114 130 131
f 114 131 115
f 115 131 132
f 115 132 116
f 116 132 133
f 116 133 117
f 117 133 134
f 117 134 118
f 118 134 135
f 118 135 119
f 119 135 136
f 119 136 120
f 120 136 137
f 120 137 121
f 121 137 138
f 121 138 122
f 122 138 139
f 122 139 123
f 123 139 140
f 123 140 124
f 124 140 141
f 124 141 125
f 125 141 142
f 125 142 126
f 126 142 143
f 126 143 127
f 127 143 144
f 127 144 128
f 128 144 129
f 128 129 113
f 129 145 146
f 129 146 130
f 130 146 147
f 130 147 131
f 131 147 148
f 131 148 132
f 132 148 149
f 132 149 133
f 133 149 150
f 133 150 134
f 134 150 151
f 134 151 135
f 135 151 152
f 135 152 136
f 136 152 153
f 136 153 137
f 137 153 154
f 137 154 138
f 138 154 155
f 138 155 139
f 139 155 156
f 139 156 140
f 140 156 157
f 140 157 141
f 141 157 158
f 141 158 142
f 142 158 159
f 142 159 143
f 143 159 160
f 143 160 144
f 144 160 145
f 144 145 129
f 145 161 162
f 145 162 146
f 146 162 163
f 146 163 147
f 147 163 164
f 147 164 148
f 148 164 165
f 148 165 149
f 149 165 166
f 149 166 150
f 150 166 167
f 150 167 151
f 151 167 168
f 151 168 152
f 152 168 169
f 152 169 153
f 153 169 170
f 153 170 154
f 154 170 171
f 154 171 155
f 155 171 172
f 155 172 156
f 156 172 173
f 156 173 157
f 157 173 174
f 157 174 158
f 158 174 175
f 158 175 159
f 159 175 176
f 159 176 160
f 160 176 161
f 160 161 145
f 161 177 178
f 161 178 162
f 162 178 179
f 162 179 163
f 163 179 180
f 163 180 164
f 164 180 181
f 164 181 165
f 165 181 182
f 165 182 166
f 166 182 183
f 166 183 167
f 167 183 184
f 167 184 168
f 168 184 185
f 168 185 169
f 169 185 186
f 169 186 170
f 170 186 187
f 170 187 171
f 171 187 188
f 171 188 172
f 172 188 189
f 172 189 173
f 173 189 190
f 173 190 174
f 174 190 191
f 174 191 175
f 175 191 192
f 175 192 176
f 176 192 177
f 176 177 161
f 177 193 194
f 177 194 178
f 178 194 195
f 178 195 179
f 179 195 196
f 179 196 180
f 180 196 197
f 180 197 181
f 181 197 198
f 181 198 182
f 182 198 199
f 182 199 183
f 183 199 200
f 183 200 184
f 184 200 201
f 184 201 185
f 185 201 202
f 185 202 186
f 186 202 203
f 186 203 187
f 187 203 204
f 187 204 188
f 188 204 205
f 188 205 189
f 189 205 206
f 189 206 190
f 190 206 207
f 190 207 191
f 191 207 208
f 191 208 192
f 192 208 193
f 192 193 177
f 193 209 210
f 193 210 194
f 194 210 211
f 194 211 195
f 195 211 212
f 195 212 196
f 196 212 213
f 196 213 197
f 197 213 214
f 197 214 198
f 198 214 215
f 198 215 199
f 199 215 216
f 199 216 200
f 200 216 217
f 200 217 201
f 201 217 218
f 201 218 202
f 202 218 219
f 202 219 203
f 203 219 220
f 203 220 204
f 204 220 221
f 204 221 205
f 205 221 222
f 205 222 206
f 206 222 223
f 206 223 207
f 207 223 224
f 207 224 208
f 208 224 209
f 208 209 193
f 209 225 226
f 209 226 210
f 210 226 227
f 210 227 211
f 211 227 228
f 211 228 212
f 212 228 229
f 212 229 213
f 213 229 230
f 213 230 214
f 214 230 231
f 214 231 215
f 215 231 232
f 215 232 216
f 216 232 233
f 216 233 217
f 217 233 234
f 217 234 218
f 218 234 235
f 218 235 219
f 219 235 236
f 219 236 220
f 220 236 237
f 220 237 221
f 221 237 238
f 221 238 222
f 222 238 239
f 222 239 223
f 223 239 240
f 223 240 224
f 224 240 225
f 224 225 209
f 225 241 242
f 225 242 226
f 226 242 243
f 226 243 227
f 227 243 244
f 227 244 228
f 228 244 245
f 228 245 229
f 229 245 246
f 229 246 230
f 230 246 247
f 230 247 231
f 231 247 248
f 231 248 232
f 232 248 249
f 232 249 233
f 233 249 250
f 233 250 234
f 234 250 251
f 234 251 235
f 235 251 252
f 235 252 236
f 236 252 253
f 236 253 237
f 237 253 254
f 237 254 238
f 238 254 255
f 238 255 239
f 239 255 256
f 239 256 240
f 240 256 241
f 240 241 225
f 241 257 258
f 241 258 242
f 242 258 259
f 242 259 243
f 243 259 260
f 243 260 244
f 244 260 261
f 244 261 245
f 245 261 262
f 245 262 246
f 246 262 263
f 246 263 247
f 247 263 264
f 247 264 248
f 248 264 265
f 248 265 249
f 249 265 266
f 249 266 250
f 250 266 267
f 250 267 251
f 251 267 268
f 251 268 252
f 252 268 269
f 252 269 253
f 253 269 270
f 253 270 254
f 254 270 271
f 254 271 255
f 255 271 272
f 255 272 256
f 256 272 257
f 256 257 241
f 257 273 274
f 257 274 258
f 258 274 275
f 258 275 259
f 259 275 276
f 259 276 260
f 260 276 277
f 260 277 261
f 261 277 278
f 261 278 262
f 262 278 279
f 262 279 263
f 263 279 280
f 263 280 264
f 264 280 281
f 264 281 265
f 265 281 282
f 265 282 266
f 266 282 283
f 266 283 267
f 267 283 284
f 267 284 268
f 268 284 285
f 268 285 269
f 269 285 286
f 269 286 270
f 270 286 287
f 270 287 271
f 271 287 288
f 271 288 272
f 272 288 273
f 272 273 257
f 273 289 290
f 273 290 274
f 274 290 291
f 274 291 275
f 275 291 292
f 275 292 276
f 276 292 293
f 276 293 277
f 277 293 294
f 277 294 278
f 278 294 295
f 278 295 279
f 279 295 296
f 279 296 280
f 280 296 297
f 280 297 281
f 281 297 298
f 281 298 282
f 282 298 299
f 282 299 283
f 283 299 300
f 283 300 284
f 284 300 301
f 284 301 285
f 285 301 302
f 285 302 286
f 286 302 303
f 286 303 287
f 287 303 304
f 287 304 288
f 288 304 289
f 288 289 273
f 289 305 306
f 289 306 290
f 290 306 307
f 290 307 291
f 291 307 308
f 291 308 292
f 292 308 309
f 292 309 293
f 293 309 310
f 293 310 294
f 294 310 311
f 294 311 295
f 295 311 312
f 295 312 296
f 296 312 313
f 296 313 297
f 297 313 314
f 297 314 298
f 298 314 315
f 298 315 299
f 299 315 316
f 299 316 300
f 300 316 317
f 300 317 301
f 301 317 318
f 301 318 302
f 302 318 319
f 302 319 303
f 303 319 320
f 303 320 304
f 304 320 305
f 304 305 289
f 305 321 322
f 305 322 306
f 306 322 323
f 306 323 307
f 307 323 324
f 307 324 308
f 308 324 325
f 308 325 309
f 309 325 326
f 309 326 310
f 310 326 327
f 310 327 311
f 311 327 328
f 311 328 312
f 312 328 329
f 312 329 313
f 313 329 330
f 313 330 314
f 314 330 331
f 314 331 315
f 315 331 332
f 315 332 316
f 316 332 333
f 316 333 317
f 317 333 334
f 317 334 318
f 318 334 335
f 318 335 319
f 319 335 336
f 319 336 320
f 320 336 321
f 320 321 305
f 321 337 338
f 321 338 322
f 322 338 339
f 322 339 323
f 323 339 340
f 323 340 324
f 324 340 341
f 324 341 325
f 325 341 342
f 325 342 326
f 326 342 343
f 326 343 327
f 327 343 344
f 327 344 328
f 328 344 345
f 328 345 329
f 329 345 346
f 329 346 330
f 330 346 347
f 330 347 331
f 331 347 348
f 331 348 332
f 332 348 349
f 332 349 333
f 333 349 350
f 333 350 334
f 334 350 351
f 334 351 335
f 335 351 352
f 335 352 336
f 336 352 337
f 336 337 321
f 337 353 354
f 337 354 338
f 338 354 355
f 338 355 339
f 339 355 356
f 339 356 340
f 340 356 357
f 340 357 341
f 341 357 358
f 341 358 342
f 342 358 359
f 342 359 343
f 343 359 360
f 343 360 344
f 344 360 361
f 344 361 345
f 345 361 362
f 345 362 346
f 346 362 363
f 346 363 347
f 347 363 364
f 347 364 348
f 348 364 365
f 348 365 349
f 349 365 366
f 349 366 350
f 350 366 367
f 350 367 351
f 351 367 368
f 351 368 352
f 352 368 353
f 352 353 337
f 353 369 370
f 353 370 354
f 354 370 371
f 354 371 355
f 355 371 372
f 355 372 356
f 356 372 373
f 356 373 357
f 357 373 374
f 357 374 358
f 358 374 375
f 358 375 359
f 359 375 376
f 359 376 360
f 360 376 377
f 360 377 361
f 361 377 378
f 361 378 362
f 362 378 379
f 362 379 363
f 363 379 380
f 363 380 364
f 364 380 381
f 364 381 365
f 365 381 382
f 365 382 366
f 366 382 383
f 366 383 367
f 367 383 384
f 367 384 368
f 368 384 369
f 368 369 353
f 369 385 386
f 369 386 370
f 370 386 387
f 370 387 371
f 371 387 388
f 371 388 372
f 372 388 389
f 372 389 373
f 373 389 390
f 373 390 374
f 374 390 391
f 374 391 375
f 375 391 392
f 375 392 376
f 376 392 393
f 376 393 377
f 377 393 394
f 377 394 378
f 378 394 395
f 378 395 379
f 379 395 396
f 379 396 380
f 380 396 397
f 380 397 381
f 381 397 398
f 381 398 382
f 382 398 399
f 382 399 383
f 383 399 400
f 383 400 384
f 384 400 385
f 384 385 369
f 385 401 402
f 385 402 386
f 386 402 403
f 386 403 387
f 387 403 404
f 387 404 388
f 388 404 405
f 388 405 389
f 389 405 406
f 389 406 390
f 390 406 407
f 390 407 391
f 391 407 408
f 391 408 392
f 392 408 409
f 392 409 393
f 393 409 410
f 393 410 394
f 394 410 411
f 394 411 395
f 395 411 412
f 395 412 396
f 396 412 413
f 396 413 397
f 397 413 414
f 397 414 398
f 398 414 415
f 398 415 399
f 399 415 416
f 399 416 400
f 400 416 401
f 400 401 385
f 401 417 418
f 401 418 402
f 402 418 419
f 402 419 403
f 403 419 420
f 403 420 404
f 404 420 421
f 404 421 405
f 405 421 422
f 405 422 406
f 406 422 423
f 406 423 407
f 407 423 424
f 407 424 408
f 408 424 425
f 408 425 409
f 409 425 426
f 409 426 410
f 410 426 427
f 410 427 411
f 411 427 428
f 411 428 412
f 412 428 429
f 412 429 413
f 413 429 430
f 413 430 414
f 414 430 431
f 414 431 415
f 415 431 432
f 415 432 416
f 416 432 417
f 416 417 401
f 417 433 434
f 417 434 418
f 418 434 435
f 418 435 419
f 419 435 436
f 419 436 420
f 420 436 437
f 420 437 421
f 421 437 438
f 421 438 422
f 422 438 439
f 422 439 423
f 423 439 440
f 423 440 424
f 424 440 441
f 424 441 425
f 425 441 442
f 425 442 426
f 426 442 443
f 426 443 427
f 427 443 444
f 427 444 428
f 428 444 445
f 428 445 429
f 429 445 446
f 429 446 430
f 430 446 447
f 430 447 431
f 431 447 448
f 431 448 432
f 432 448 433
f 432 433 417
f 433 449 450
f 433 450 434
f 434 450 451
f 434 451 435
f 435 451 452
f 435 452 436
f 436 452 453
f 436 453 437
f 437 453 454
f 437 454 438
f 438 454 455
f 438 455 439
f 439 455 456
f 439 456 440
f 440 456 457
f 440 457 441
f 441 457 458
f 441 458 442
f 442 458 459
f 442 459 443
f 443 459 460
f 443 460 444
f 444 460 461
f 444 461 445
f 445 461 462
f 445 462 446
f 446 462 463
f 446 463 447
f 447 463 464
f 447 464 448
f 448 464 449
f 448 449 433
f 449 465 466
f 449 466 450
f 450 466 467
f 450 467 451
f 451 467 468
f 451 468 452
f 452 468 469
f 452 469 453
f 453 469 470
f 453 470 454
f 454 470 471
f 454 471 455
f 455 471 472
f 455 472 456
f 456 472 473
f 456 473 457
f 457 473 474
f 457 474 458
f 458 474 475
f 458 475 459
f 459 475 476
f 459 476 460
f 460 476 477
f 460 477 461
f 461 477 478
f 461 478 462
f 462 478 479
f 462 479 463
f 463 479 480
f 463 480 464
f 464 480 465
f 464 465 449
f 465 481 482
f 465 482 466
f 466 482 483
f 466 483 467
f 467 483 484
f 467 484 468
f 468 484 485
f 468 485 469
f 469 485 486
f 469 486 470
f 470 486 487
f 470 487 471
f 471 487 488
f 471 488 472
f 472 488 489
f 472 489 473
f 473 489 490
f 473 490 474
f 474 490 491
f 474 491 475
f 475 491 492
f 475 492 476
f 476 492 493
f 476 493 477
f 477 493 494
f 477 494 478
f 478 494 495
f 478 495 479
f 479 495 496
f 479 496 480
f 480 496 481
f 480 481 465
f 481 497 498
f 481 498 482
f 482 498 499
f 482 499 483
f 483 499 500
f 483 500 484
f 484 500 501
f 484 501 485
f 485 501 502
f 485 502 486
f 486 502 503
f 486 503 487
f 487 503 504
f 487 504 488
f 488 504 505
f 488 505 489
f 489 505 506
f 489 506 490
f 490 506 507
f 490 507 491
f 491 507 508
f 491 508 492
f 492 508 509
f 492 509 493
f 493 509 510
f 493 510 494
f 494 510 511
f 494 511 495
f 495 511 512
f 495 512 496
f 496 512 497
f 496 497 481
f 497 513 514
f 497 514 498
f 498 514 515
f 498 515 499
f 499 515 516
f 499 516 500
f 500 516 517
f 500 517 501
f 501 517 518
f 501 518 502
f 502 518 519
f 502 519 503
f 503 519 520
f 503 520 504
f 504 520 521
f 504 521 505
f 505 521 522
f 505 522 506
f 506 522 523
f 506 523 507
f 507 523 524
f 507 524 508
f 508 524 525
f 508 525 509
f 509 525 526
f 509 526 510
f 510 526 527
f 510 527 511
f 511 527 528
f 511 528 512
f 512 528 513
f 512 513 497
f 513 529 530
f 513 530 514
f 514 530 531
f 514 531 515
f 515 531 532
f 515 532 516
f 516 532 533
f 516 533 517
f 517 533 534
f 517 534 518
f 518 534 535
f 518 535 519
f 519 535 536
f 519 536 520
f 520 536 537
f 520 537 521
f 521 537 538
f 521 538 522
f 522 538 539
f 522 539 523
f 523 539 540
f 523 540 524
f 524 540 541
f 524 541 525
f 525 541 542
f 525 542 526
f 526 542 543
f 526 543 527
f 527 543 544
f 527 544 528
f 528 544 529
f 528 529 513
f 529 545 546
f 529 546 530
f 530 546 547
f 530 547 531
f 531 547 548
f 531 548 532
f 532 548 549
f 532 549 533
f 533 549 550
f 533 550 534
f 534 550 551
f 534 551 535
f 535 551 552
f 535 552 536
f 536 552 553
f 536 553 537
f 537 553 554
f 537 554 538
f 538 554 555
f 538 555 539
f 539 555 556
f 539 556 540
f 540 556 557
f 540 557 541
f 541 557 558
f 541 558 542
f 542 558 559
f 542 559 543
f 543 559 560
f 543 560 544
f 544 560 545
f 544 545 529
f 545 561 562
f 545 562 546
f 546 562 563
f 546 563 547
f 547 563 564
f 547 564 548
f 548 564 565
f 548 565 549
f 549 565 566
f 549 566 550
f 550 566 567
f 550 567 551
f 551 567 568
f 551 568 552
f 552 568 569
f 552 569 553
f 553 569 570
f 553 570 554
f 554 570 571
f 554 571 555
f 555 571 572
f 555 572 556
f 556 572 573
f 556 573 557
f 557 573 574
f 557 574 558
f 558 574 575
f 558 575 559
f 559 575 576
f 559 576 560
f 560 576 561
f 560 561 545
f 561 577 578
f 561 578 562
f 562 578 579
f 562 579 563
f 563 579 580
f 563 580 564
f 564 580 581
f 564 581 565
f 565 581 582
f 565 582 566
f 566 582 583
f 566 583 567
f 567 583 584
f 567 584 568
f 568 584 585
f 568 585 569
f 569 585 586
f 569 586 570
f 570 586 587
f 570 587 571
f 571 587 588
f 571 588 572
f 572 588 589
f 572 589 573
f 573 589 590
f 573 590 574
f 574 590 591
f 574 591 575
f 575 591 592
f 575 592 576
f 576 592 577
f 576 577 561
f 577 593 594
f 577 594 578
f 578 594 595
f 578 595 579
f 579 595 596
f 579 596 580
f 580 596 597
f 580 597 581
f 581 597 598
f 581 598 582
f 582 598 599
f 582 599 583
f 583 599 600
f 583 600 584
f 584 600 601
f 584 601 585
f 585 601 602
f 585 602 586
f 586 602 603
f 586 603 587
f 587 603 604
f 587 604 588
f 588 604 605
f 588 605 589
f 589 605 606
f 589 606 590
f 590 606 607
f 590 607 591
f 591 607 608
f 591 608 592
f 592 608 593
f 592 593 577
f 593 609 610
f 593 610 594
f 594 610 611
f 594 611 595
f 595 611 612
f 595 612 596
f 596 612 613
f 596 613 597
f 597 613 614
f 597 614 598
f 598 614 615
f 598 615 599
f 599 615 616
f 599 616 600
f 600 616 617
f 600 617 601
f 601 617 618
f 601 618 602
f 602 618 619
f 602 619 603
f 603 619 620
f 603 620 604
f 604 620 621
f 604 621 605
f 605 621 622
f 605 622 606
f 606 622 623
f 606 623 607
f 607 623 624
f 607 624 608
f 608 624 609
f 608 609 593
f 609 625 626
f 609 626 610
f 610 626 627
f 610 627 611
f 611 627 628
f 611 628 612
f 612 628 629
f 612 629 613
f 613 629 630
f 613 630 614
f 614 630 631
f 614 631 615
f 615 631 632
f 615 632 616
f 616 632 633
f 616 633 617
f 617 633 634
f 617 634 618
f 618 634 635
f 618 635 619
f 619 635 636
f 619 636 620
f 620 636 637
f 620 637 621
f 621 637 638
f 621 638 622
f 622 638 639
f 622 639 623
f 623 639 640
f 623 640 624
f 624 640 625
f 624 625 609
f 625 641 642
f 625 642 626
f 626 642 643
f 626 643 627
f 627 643 644
f 627 644 628
f 628 644 645
f 628 645 629
f 629 645 646
f 629 646 630
f 630 646 647
f 630 647 631
f 631 647 648
f 631 648 632
f 632 648 649
f 632 649 633
f 633 649 650
f 633 650 634
f 634 650 651
f 634 651 635
f 635 651 652
f 635 652 636
f 636 652 653
f 636 653 637
f 637 653 654
f 637 654 638
f 638 654 655
f 638 655 639
f 639 655 656
f 639 656 640
f 640 656 641
f 640 641 625
f 641 657 658
f 641 658 642
f 642 658 659
f 642 659 643
f 643 659 660
f 643 660 644
f 644 660 661
f 644 661 645
f 645 661 662
f 645 662 646
f 646 662 663
f 646 663 647
f 647 663 664
f 647 664 648
f 648 664 665
f 648 665 649
f 649 665 666
f 649 666 650
f 650 666 667
f 650 667 651
f 651 667 668
f 651 668 652
f 652 668 669
f 652 669 653
f 653 669 670
f 653 670 654
f 654 670 671
f 654 671 655
f 655 671 672
f 655 672 656
f 656 672 657
f 656 657 641
f 657 673 674
f 657 674 658
f 658 674 675
f 658 675 659
f 659 675 676
f 659 676 660
f 660 676 677
f 660 677 661
f 661 677 678
f 661 678 662
f 662 678 679
f 662 679 663
f 663 679 680
f 663 680 664
f 664 680 681
f 664 681 665
f 665 681 682
f 665 682 666
f 666 682 683
f 666 683 667
f 667 683 684
f 667 684 668
f 668 684 685
f 668 685 669
f 669 685 686
f 669 686 670
f 670 686 687
f 670 687 671
f 671 687 688
f 671 688 672
f 672 688 673
f 672 673 657
f 673 689 690
f 673 690 674
f 674 690 691
f 674 691 675
f 675 691 692
f 675 692 676
f 676 692 693
f 676 693 677
f 677 693 694
f 677 694 678
f 678 694 695
f 678 695 679
f 679 695 696
f 679 696 680
f 680 696 697
f 680 697 681
f 681 697 698
f 681 698 682
f 682 698 699
f 682 699 683
f 683 699 700
f 683 700 684
f 684 700 701
f 684 701 685
f 685 701 702
f 685 702 686
f 686 702 703
f 686 703 687
f 687 703 704
f 687 704 688
f 688 704 689
f 688 689 673
f 689 705 706
f 689 706 690
f 690 706 707
f 690 707 691
f 691 707 708
f 691 708 692
f 692 708 709
f 692 709 693
f 693 709 710
f 693 710 694
f 694 710 711
f 694 711 695
f 695 711 712
f 695 712 696
f 696 712 713
f 696 713 697
f 697 713 714
f 697 714 698
f 698 714 715
f 698 715 699
f 699 715 716
f 699 716 700
f 700 716 717
f 700 717 701
f 701 717 718
f 701 718 702
f 702 718 719
f 702 719 703
f 703 719 720
f 703 720 704
f 704 720 705
f 704 705 689
f 705 721 722
f 705 722 706
f 706 722 723
f 706 723 707
f 707 723 724
f 707 724 708
f 708 724 725
f 708 725 709
f 709 725 726
f 709 726 710
f 710 726 727
f 710 727 711
f 711 727 728
f 711 728 712
f 712 728 729
f 712 729 713
f 713 729 730
f 713 730 714
f 714 730 731
f 714 731 715
f 715 731 732
f 715 732 716
f 716 732 733
f 716 733 717
f 717 733 734
f 717 734 718
f 718 734 735
f 718 735 719
f 719 735 736
f 719 736 720
f 720 736 721
f 720 721 705
f 721 737 738
f 721 738 722
f 722 738 739
f 722 739 723
f 723 739 740
f 723 740 724
f 724 740 741
f 724 741 725
f 725 741 742
f 725 742 726
f 726 742 743
f 726 743 727
f 727 743 744
f 727 744 728
f 728 744 745
f 728 745 729
f 729 745 746
f 729 746 730
f 730 746 747
f 730 747 731
f 731 747 748
f 731 748 732
f 732 748 749
f 732 749 733
f 733 749 750
f 733 750 734
f 734 750 751
f 734 751 735
f 735 751 752
f 735 752 736
f 736 752 737
f 736 737 721
f 737 753 754
f 737 754 738
f 738 754 755
f 738 755 739
f 739 755 756
f 739 756 740
f 740 756 757
f 740 757 741
f 741 757 758
f 741 758 742
f 742 758 759
f 742 759 743
f 743 759 760
f 743 760 744
f 744 760 761
f 744 761 745
f 745 761 762
f 745 762 746
f 746 762 763
f 746 763 747
f 747 763 764
f 747 764 748
f 748 764 765
f 748 765 749
f 749 765 766
f 749 766 750
f 750 766 767
f 750 767 751
f 751 767 768
f 751 768 752
f 752 768 753
f 752 753 737
f 753 769 770
f 753 770 754
f 754 770 771
f 754 771 755
f 755 771 772
f 755 772 756
f 756 772 773
f 756 773 757
f 757 773 774
f 757 774 758
f 758 774 775
f 758 775 759
f 759 775 776
f 759 776 760
f 760 776 777
f 760 777 761
f 761 777 778
f 761 778 762
f 762 778 779
f 762 779 763
f 763 779 780
f 763 780 764
f 764 780 781
f 764 781 765
f 765 781 782
f 765 782 766
f 766 782 783
f 766 783 767
f 767 783 784
f 767 784 768
f 768 784 769
f 768 769 753
f 769 785 786
f 769 786 770
f 770 786 787
f 770 787 771
f 771 787 788
f 771 788 772
f 772 788 789
f 772 789 773
f 773 789 790
f 773 790 774
f 774 790 791
f 774 791 775
f 775 791 792
f 775 792 776
f 776 792 793
f 776 793 777
f 777 793 794
f 777 794 778
f 778 794 795
f 778 795 779
f 779 795 796
f 779 796 780
f 780 796 797
f 780 797 781
f 781 797 798
f 781 798 782
f 782 798 799
f 782 799 783
f 783 799 800
f 783 800 784
f 784 800 785
f 784 785 769
f 785 801 802
f 785 802 786
f 786 802 803
f 786 803 787
f 787 803 804
f 787 804 788
f 788 804 805
f 788 805 789
f 789 805 806
f 789 806 790
f 790 806 807
f 790 807 791
f 791 807 808
f 791 808 792
f 792 808 809
f 792 809 793
f 793 809 810
f 793 810 794
f 794 810 811
f 794 811 795
f 795 811 812
f 795 812 796
f 796 812 813
f 796 813 797
f 797 813 814
f 797 814 798
f 798 814 815
f 798 815 799
f 799 815 816
f 799 816 800
f 800 816 801
f 800 801 785
f 801 817 818
f 801 818 802
f 802 818 819
f 802 819 803
f 803 819 820
f 803 820 804
f 804 820 821
f 804 821 805
f 805 821 822
f 805 822 806
f 806 822 823
f 806 823 807
f 807 823 824
f 807 824 808
f 808 824 825
f 808 825 809
f 809 825 826
f 809 826 810
f 810 826 827
f 810 827 811
f 811 827 828
f 811 828 812
f 812 828 829
f 812 829 813
f 813 829 830
f 813 830 814
f 814 830 831
f 814 831 815
f 815 831 832
f 815 832 816
f 816 832 817
f 816 817 801
f 817 833 834
f 817 834 818
f 818 834 835
f 818 835 819
f 819 835 836
f 819 836 820
f 820 836 837
f 820 837 821
f 821 837 838
f 821 838 822
f 822 838 839
f 822 839 823
f 823 839 840
f 823 840 824
f 824 840 841
f 824 841 825
f 825 841 842
f 825 842 826
f 826 842 843
f 826 843 827
f 827 843 844
f 827 844 828
f 828 844 845
f 828 845 829
f 829 845 846
f 829 846 830
f 830 846 847
f 830 847 831
f 831 847 848
f 831 848 832
f 832 848 833
f 832 833 817
f 833 849 850
f 833 850 834
f 834 850 851
f 834 851 835
f 835 851 852
f 835 852 836
f 836 852 853
f 836 853 837
f 837 853 854
f 837 854 838
f 838 854 855
f 838 855 839
f 839 855 856
f 839 856 840
f 840 856 857
f 840 857 841
f 841 857 858
f 841 858 842
f 842 858 859
f 842 859 843
f 843 859 860
f 843 860 844
f 844 860 861
f 844 861 845
f 845 861 862
f 845 862 846
f 846 862 863
f 846 863 847
f 847 863 864
f 847 864 848
f 848 864 849
f 848 849 833
f 849 865 866
f 849 866 850
f 850 866 867
f 850 867 851
f 851 867 868
f 851 868 852
f 852 868 869
f 852 869 853
f 853 869 870
f 853 870 854
f 854 870 871
f 854 871 855
f 855 871 872
f 855 872 856
f 856 872 873
f 856 873 857
f 857 873 874
f 857 874 858
f 858 874 875
f 858 875 859
f 859 875 876
f 859 876 860
f 860 876 877
f 860 877 861
f 861 877 878
f 861 878 862
f 862 878 879
f 862 879 863
f 863 879 880
f 863 880 864
f 864 880 865
f 864 865 849
f 865 881 882
f 865 882 866
f 866 882 883
f 866 883 867
f 867 883 884
f 867 884 868
f 868 884 885
f 868 885 869
f 869 885 886
f 869 886 870
f 870 886 887
f 870 887 871
f 871 887 888
f 871 888 872
f 872 888 889
f 872 889 873
f 873 889 890
f 873 890 874
f 874 890 891
f 874 891 875
f 875 891 892
f 875 892 876
f 876 892 893
f 876 893 877
f 877 893 894
f 877 894 878
f 878 894 895
f 878 895 879
f 879 895 896
f 879 896 880
f 880 896 881
f 880 881 865
f 881 897 898
f 881 898 882
f 882 898 899
f 882 899 883
f 883 899 900
f 883 900 884
f 884 900 901
f 884 901 885
f 885 901 902
f 885 902 886
f 886 902 903
f 886 903 887
f 887 903 904
f 887 904 888
f 888 904 905
f 888 905 889
f 889 905 906
f 889 906 890
f 890 906 907
f 890 907 891
f 891 907 908
f 891 908 892
f 892 908 909
f 892 909 893
f 893 909 910
f 893 910 894
f 894 910 911
f 894 911 895
f 895 911 912
f 895 912 896
f 896 912 897
f 896 897 881
f 897 913 914
f 897 914 898
f 898 914 915
f 898 915 899
f 899 915 916
f 899 916 900
f 900 916 917
f 900 917 901
f 901 917 918
f 901 918 902
f 902 918 919
f 902 919 903
f 903 919 920
f 903 920 904
f 904 920 921
f 904 921 905
f 905 921 922
f 905 922 906
f 906 922 923
f 906 923 907
f 907 923 924
f 907 924 908
f 908 924 925
f 908 925 909
f 909 925 926
f 909 926 910
f 910 926 927
f 910 927 911
f 911 927 928
f 911 928 912
f 912 928 913
f 912 913 897
f 913 929 930
f 913 930 914
f 914 930 931
f 914 931 915
f 915 931 932
f 915 932 916
f 916 932 933
f 916 933 917
f 917 933 934
f 917 934 918
f 918 934 935
f 918 935 919
f 919 935 936
f 919 936 920
f 920 936 937
f 920 937 921
f 921 937 938
f 921 938 922
f 922 938 939
f 922 939 923
f 923 939 940
f 923 940 924
f 924 940 941
f 924 941 925
f 925 941 942
f 925 942 926
f 926 942 943
f 926 943 927
f 927 943 944
f 927 944 928
f 928 944 929
f 928 929 913
f 929 945 946
f 929 946 930
f 930 946 947
f 930 947 931
f 931 947 948
f 931 948 932
f 932 948 949
f 932 949 933
f 933 949 950
f 933 950 934
f 934 950 951
f 934 951 935
f 935 951 952
f 935 952 936
f 936 952 953
f 936 953 937
f 937 953 954
f 937 954 938
f 938 954 955
f 938 955 939
f 939 955 956
f 939 956 940
f 940 956 957
f 940 957 941
f 941 957 958
f 941 958 942
f 942 958 959
f 942 959 943
f 943 959 960
f 943 960 944
f 944 960 945
f 944 945 929
f 961 2 1
f 962 945 946
f 961 3 2
f 962 946 947
f 961 4 3
f 962 947 948
f 961 5 4
f 962 948 949
f 961 6 5
f 962 949 950
f 961 7 6
f 962 950 951
f 961 8 7
f 962 951 952
f 961 9 8
f 962 952 953
f 961 10 9
f 962 953 954
f 961 11 10
f 962 954 955
f 961 12 11
f 962 955 956
f 961 13 12
f 962 956 957
f 961 14 13
f 962 957 958
f 961 15 14
f 962 958 959
f 961 16 15
f 962 959 960
f 961 1 16
f 962 960 945
