v 0.00856 -0.00300 0.00000
v 0.00791 -0.00438 0.00385
v 0.00605 -0.00555 0.00712
v 0.00328 -0.00634 0.00931
v 0.00000 -0.00661 0.01007
v -0.00328 -0.00634 0.00931
v -0.00605 -0.00555 0.00712
v -0.00791 -0.00438 0.00385
v -0.00856 -0.00300 0.00000
v -0.00791 -0.00162 -0.00385
v -0.00605 -0.00045 -0.00712
v -0.00328 0.00034 -0.00931
v -0.00000 0.00061 -0.01007
v 0.00328 0.00034 -0.00931
v 0.00605 -0.00045 -0.00712
v 0.00791 -0.00162 -0.00385
v 0.00848 -0.00385 -0.00030
v 0.00783 -0.00521 0.00352
v 0.00600 -0.00637 0.00675
v 0.00324 -0.00715 0.00892
v 0.00000 -0.00742 0.00968
v -0.00324 -0.00715 0.00892
v -0.00600 -0.00637 0.00675
v -0.00783 -0.00521 0.00352
v -0.00848 -0.00385 -0.00030
v -0.00783 -0.00248 -0.00412
v -0.00600 -0.00132 -0.00736
v -0.00324 -0.00055 -0.00952
v -0.00000 -0.00028 -0.01028
v 0.00324 -0.00055 -0.00952
v 0.00600 -0.00132 -0.00736
v 0.00783 -0.00248 -0.00412
v 0.00840 -0.00469 -0.00061
v 0.00776 -0.00604 0.00318
v 0.00594 -0.00718 0.00639
v 0.00321 -0.00794 0.00853
v 0.00000 -0.00820 0.00929
v -0.00321 -0.00794 0.00853
v -0.00594 -0.00718 0.00639
v -0.00776 -0.00604 0.00318
v -0.00840 -0.00469 -0.00061
v -0.00776 -0.00335 -0.00439
v -0.00594 -0.00221 -0.00760
v -0.00321 -0.00145 -0.00975
v -0.00000 -0.00119 -0.01050
v 0.00321 -0.00145 -0.00975
v 0.00594 -0.00221 -0.00760
v 0.00776 -0.00335 -0.00439
v 0.00832 -0.00554 -0.00090
v 0.00768 -0.00685 0.00285
v 0.00588 -0.00797 0.00603
v 0.00318 -0.00871 0.00816
v 0.00000 -0.00897 0.00891
v -0.00318 -0.00871 0.00816
v -0.00588 -0.00797 0.00603
v -0.00768 -0.00685 0.00285
v -0.00832 -0.00554 -0.00090
v -0.00768 -0.00423 -0.00466
v -0.00588 -0.00312 -0.00784
v -0.00318 -0.00237 -0.00997
v -0.00000 -0.00211 -0.01072
v 0.00318 -0.00237 -0.00997
v 0.00588 -0.00312 -0.00784
v 0.00768 -0.00423 -0.00466
v 0.00823 -0.00639 -0.00120
v 0.00761 -0.00767 0.00253
v 0.00582 -0.00875 0.00569
v 0.00315 -0.00947 0.00780
v 0.00000 -0.00972 0.00854
v -0.00315 -0.00947 0.00780
v -0.00582 -0.00875 0.00569
v -0.00761 -0.00767 0.00253
v -0.00823 -0.00639 -0.00120
v -0.00761 -0.00511 -0.00492
v -0.00582 -0.00403 -0.00808
v -0.00315 -0.00331 -0.01020
v -0.00000 -0.00306 -0.01094
v 0.00315 -0.00331 -0.01020
v 0.00582 -0.00403 -0.00808
v 0.00761 -0.00511 -0.00492
v 0.00815 -0.00724 -0.00148
v 0.00753 -0.00847 0.00221
v 0.00576 -0.00951 0.00535
v 0.00312 -0.01021 0.00745
v 0.00000 -0.01046 0.00818
v -0.00312 -0.01021 0.00745
v -0.00576 -0.00951 0.00535
v -0.00753 -0.00847 0.00221
v -0.00815 -0.00724 -0.00148
v -0.00753 -0.00601 -0.00518
v -0.00576 -0.00496 -0.00832
v -0.00312 -0.00426 -0.01042
v -0.00000 -0.00402 -0.01115
v 0.00312 -0.00426 -0.01042
v 0.00576 -0.00496 -0.00832
v 0.00753 -0.00601 -0.00518
v 0.00807 -0.00808 -0.00176
v 0.00745 -0.00927 0.00191
v 0.00571 -0.01027 0.00503
v 0.00309 -0.01094 0.00711
v 0.00000 -0.01118 0.00784
v -0.00309 -0.01094 0.00711
v -0.00571 -0.01027 0.00503
v -0.00745 -0.00927 0.00191
v -0.00807 -0.00808 -0.00176
v -0.00745 -0.00690 -0.00544
v -0.00571 -0.00590 -0.00855
v -0.00309 -0.00523 -0.01063
v -0.00000 -0.00499 -0.01136
v 0.00309 -0.00523 -0.01063
v 0.00571 -0.00590 -0.00855
v 0.00745 -0.00690 -0.00544
v 0.00798 -0.00893 -0.00203
v 0.00738 -0.01006 0.00162
v 0.00565 -0.01102 0.00471
v 0.00306 -0.01165 0.00678
v 0.00000 -0.01188 0.00751
v -0.00306 -0.01165 0.00678
v -0.00565 -0.01102 0.00471
v -0.00738 -0.01006 0.00162
v -0.00798 -0.00893 -0.00203
v -0.00738 -0.00780 -0.00568
v -0.00565 -0.00685 -0.00877
v -0.00306 -0.00621 -0.01084
v -0.00000 -0.00599 -0.01157
v 0.00306 -0.00621 -0.01084
v 0.00565 -0.00685 -0.00877
v 0.00738 -0.00780 -0.00568
v 0.00790 -0.00978 -0.00229
v 0.00730 -0.01085 0.00134
v 0.00559 -0.01175 0.00441
v 0.00302 -0.01236 0.00647
v 0.00000 -0.01257 0.00719
v -0.00302 -0.01236 0.00647
v -0.00559 -0.01175 0.00441
v -0.00730 -0.01085 0.00134
v -0.00790 -0.00978 -0.00229
v -0.00730 -0.00871 -0.00591
v -0.00559 -0.00781 -0.00899
v -0.00302 -0.00720 -0.01104
v -0.00000 -0.00699 -0.01176
v 0.00302 -0.00720 -0.01104
v 0.00559 -0.00781 -0.00899
v 0.00730 -0.00871 -0.00591
v 0.00782 -0.01063 -0.00253
v 0.00722 -0.01163 0.00107
v 0.00553 -0.01248 0.00413
v 0.00299 -0.01304 0.00617
v 0.00000 -0.01324 0.00688
v -0.00299 -0.01304 0.00617
v -0.00553 -0.01248 0.00413
v -0.00722 -0.01163 0.00107
v -0.00782 -0.01063 -0.00253
v -0.00722 -0.00963 -0.00613
v -0.00553 -0.00878 -0.00919
v -0.00299 -0.00821 -0.01123
v -0.00000 -0.00801 -0.01194
v 0.00299 -0.00821 -0.01123
v 0.00553 -0.00878 -0.00919
v 0.00722 -0.00963 -0.00613
v 0.00773 -0.01147 -0.00276
v 0.00714 -0.01240 0.00082
v 0.00547 -0.01319 0.00386
v 0.00296 -0.01372 0.00588
v 0.00000 -0.01390 0.00660
v -0.00296 -0.01372 0.00588
v -0.00547 -0.01319 0.00386
v -0.00714 -0.01240 0.00082
v -0.00773 -0.01147 -0.00276
v -0.00714 -0.01054 -0.00634
v -0.00547 -0.00976 -0.00937
v -0.00296 -0.00923 -0.01140
v -0.00000 -0.00904 -0.01211
v 0.00296 -0.00923 -0.01140
v 0.00547 -0.00976 -0.00937
v 0.00714 -0.01054 -0.00634
v 0.00765 -0.01232 -0.00297
v 0.00706 -0.01318 0.00059
v 0.00541 -0.01390 0.00360
v 0.00293 -0.01438 0.00562
v 0.00000 -0.01455 0.00632
v -0.00293 -0.01438 0.00562
v -0.00541 -0.01390 0.00360
v -0.00706 -0.01318 0.00059
v -0.00765 -0.01232 -0.00297
v -0.00706 -0.01147 -0.00653
v -0.00541 -0.01074 -0.00954
v -0.00293 -0.01026 -0.01155
v -0.00000 -0.01009 -0.01226
v 0.00293 -0.01026 -0.01155
v 0.00541 -0.01074 -0.00954
v 0.00706 -0.01147 -0.00653
v 0.00756 -0.01317 -0.00316
v 0.00698 -0.01394 0.00037
v 0.00535 -0.01460 0.00336
v 0.00289 -0.01504 0.00536
v 0.00000 -0.01519 0.00606
v -0.00289 -0.01504 0.00536
v -0.00535 -0.01460 0.00336
v -0.00698 -0.01394 0.00037
v -0.00756 -0.01317 -0.00316
v -0.00698 -0.01239 -0.00670
v -0.00535 -0.01174 -0.00969
v -0.00289 -0.01130 -0.01169
v -0.00000 -0.01114 -0.01239
v 0.00289 -0.01130 -0.01169
v 0.00535 -0.01174 -0.00969
v 0.00698 -0.01239 -0.00670
v 0.00747 -0.01402 -0.00334
v 0.00690 -0.01471 0.00017
v 0.00528 -0.01529 0.00314
v 0.00286 -0.01569 0.00513
v 0.00000 -0.01582 0.00582
v -0.00286 -0.01569 0.00513
v -0.00528 -0.01529 0.00314
v -0.00690 -0.01471 0.00017
v -0.00747 -0.01402 -0.00334
v -0.00690 -0.01333 -0.00685
v -0.00528 -0.01274 -0.00982
v -0.00286 -0.01235 -0.01181
v -0.00000 -0.01221 -0.01251
v 0.00286 -0.01235 -0.01181
v 0.00528 -0.01274 -0.00982
v 0.00690 -0.01333 -0.00685
v 0.00739 -0.01486 -0.00350
v 0.00682 -0.01547 -0.00002
v 0.00522 -0.01598 0.00293
v 0.00283 -0.01632 0.00490
v 0.00000 -0.01645 0.00560
v -0.00283 -0.01632 0.00490
v -0.00522 -0.01598 0.00293
v -0.00682 -0.01547 -0.00002
v -0.00739 -0.01486 -0.00350
v -0.00682 -0.01426 -0.00698
v -0.00522 -0.01375 -0.00993
v -0.00283 -0.01340 -0.01190
v -0.00000 -0.01328 -0.01259
v 0.00283 -0.01340 -0.01190
v 0.00522 -0.01375 -0.00993
v 0.00682 -0.01426 -0.00698
v 0.00730 -0.01571 -0.00364
v 0.00674 -0.01623 -0.00018
v 0.00516 -0.01667 0.00274
v 0.00279 -0.01696 0.00470
v 0.00000 -0.01706 0.00539
v -0.00279 -0.01696 0.00470
v -0.00516 -0.01667 0.00274
v -0.00674 -0.01623 -0.00018
v -0.00730 -0.01571 -0.00364
v -0.00674 -0.01520 -0.00709
v -0.00516 -0.01476 -0.01002
v -0.00279 -0.01447 -0.01197
v -0.00000 -0.01436 -0.01266
v 0.00279 -0.01447 -0.01197
v 0.00516 -0.01476 -0.01002
v 0.00674 -0.01520 -0.00709
v 0.00721 -0.01656 -0.00375
v 0.00666 -0.01698 -0.00033
v 0.00510 -0.01734 0.00257
v 0.00276 -0.01759 0.00451
v 0.00000 -0.01767 0.00519
v -0.00276 -0.01759 0.00451
v -0.00510 -0.01734 0.00257
v -0.00666 -0.01698 -0.00033
v -0.00721 -0.01656 -0.00375
v -0.00666 -0.01613 -0.00717
v -0.00510 -0.01577 -0.01008
v -0.00276 -0.01553 -0.01201
v -0.00000 -0.01545 -0.01270
v 0.00276 -0.01553 -0.01201
v 0.00510 -0.01577 -0.01008
v 0.00666 -0.01613 -0.00717
v 0.00712 -0.01741 -0.00385
v 0.00658 -0.01774 -0.00046
v 0.00503 -0.01802 0.00242
v 0.00272 -0.01821 0.00434
v 0.00000 -0.01828 0.00501
v -0.00272 -0.01821 0.00434
v -0.00503 -0.01802 0.00242
v -0.00658 -0.01774 -0.00046
v -0.00712 -0.01741 -0.00385
v -0.00658 -0.01707 -0.00724
v -0.00503 -0.01679 -0.01011
v -0.00272 -0.01660 -0.01203
v -0.00000 -0.01654 -0.01270
v 0.00272 -0.01660 -0.01203
v 0.00503 -0.01679 -0.01011
v 0.00658 -0.01707 -0.00724
v 0.00703 -0.01825 -0.00392
v 0.00650 -0.01850 -0.00056
v 0.00497 -0.01870 0.00228
v 0.00269 -0.01884 0.00418
v 0.00000 -0.01888 0.00485
v -0.00269 -0.01884 0.00418
v -0.00497 -0.01870 0.00228
v -0.00650 -0.01850 -0.00056
v -0.00703 -0.01825 -0.00392
v -0.00650 -0.01801 -0.00727
v -0.00497 -0.01781 -0.01012
v -0.00269 -0.01767 -0.01202
v -0.00000 -0.01762 -0.01268
v 0.00269 -0.01767 -0.01202
v 0.00497 -0.01781 -0.01012
v 0.00650 -0.01801 -0.00727
v 0.00694 -0.01910 -0.00397
v 0.00641 -0.01925 -0.00065
v 0.00491 -0.01938 0.00216
v 0.00266 -0.01946 0.00404
v 0.00000 -0.01949 0.00470
v -0.00266 -0.01946 0.00404
v -0.00491 -0.01938 0.00216
v -0.00641 -0.01925 -0.00065
v -0.00694 -0.01910 -0.00397
v -0.00641 -0.01895 -0.00729
v -0.00491 -0.01883 -0.01010
v -0.00266 -0.01874 -0.01198
v -0.00000 -0.01871 -0.01264
v 0.00266 -0.01874 -0.01198
v 0.00491 -0.01883 -0.01010
v 0.00641 -0.01895 -0.00729
v 0.00685 -0.01995 -0.00400
v 0.00633 -0.02001 -0.00072
v 0.00484 -0.02006 0.00206
v 0.00262 -0.02009 0.00391
v 0.00000 -0.02010 0.00457
v -0.00262 -0.02009 0.00391
v -0.00484 -0.02006 0.00206
v -0.00633 -0.02001 -0.00072
v -0.00685 -0.01995 -0.00400
v -0.00633 -0.01989 -0.00727
v -0.00484 -0.01984 -0.01005
v -0.00262 -0.01981 -0.01190
v -0.00000 -0.01980 -0.01256
v 0.00262 -0.01981 -0.01190
v 0.00484 -0.01984 -0.01005
v 0.00633 -0.01989 -0.00727
v 0.00676 -0.02080 -0.00400
v 0.00624 -0.02077 -0.00077
v 0.00478 -0.02074 0.00197
v 0.00259 -0.02072 0.00381
v 0.00000 -0.02072 0.00445
v -0.00259 -0.02072 0.00381
v -0.00478 -0.02074 0.00197
v -0.00624 -0.02077 -0.00077
v -0.00676 -0.02080 -0.00400
v -0.00624 -0.02083 -0.00723
v -0.00478 -0.02085 -0.00997
v -0.00259 -0.02087 -0.01180
v -0.00000 -0.02088 -0.01245
v 0.00259 -0.02087 -0.01180
v 0.00478 -0.02085 -0.00997
v 0.00624 -0.02083 -0.00723
v 0.00667 -0.02164 -0.00398
v 0.00616 -0.02153 -0.00079
v 0.00471 -0.02143 0.00191
v 0.00255 -0.02136 0.00371
v 0.00000 -0.02134 0.00435
v -0.00255 -0.02136 0.00371
v -0.00471 -0.02143 0.00191
v -0.00616 -0.02153 -0.00079
v -0.00667 -0.02164 -0.00398
v -0.00616 -0.02176 -0.00717
v -0.00471 -0.02186 -0.00987
v -0.00255 -0.02193 -0.01167
v -0.00000 -0.02195 -0.01230
v 0.00255 -0.02193 -0.01167
v 0.00471 -0.02186 -0.00987
v 0.00616 -0.02176 -0.00717
v 0.00657 -0.02249 -0.00394
v 0.00607 -0.02229 -0.00080
v 0.00465 -0.02212 0.00186
v 0.00251 -0.02201 0.00364
v 0.00000 -0.02197 0.00426
v -0.00251 -0.02201 0.00364
v -0.00465 -0.02212 0.00186
v -0.00607 -0.02229 -0.00080
v -0.00657 -0.02249 -0.00394
v -0.00607 -0.02269 -0.00707
v -0.00465 -0.02286 -0.00973
v -0.00251 -0.02297 -0.01151
v -0.00000 -0.02301 -0.01213
v 0.00251 -0.02297 -0.01151
v 0.00465 -0.02286 -0.00973
v 0.00607 -0.02269 -0.00707
v 0.00648 -0.02334 -0.00387
v 0.00598 -0.02306 -0.00078
v 0.00458 -0.02282 0.00183
v 0.00248 -0.02267 0.00358
v 0.00000 -0.02261 0.00419
v -0.00248 -0.02267 0.00358
v -0.00458 -0.02282 0.00183
v -0.00598 -0.02306 -0.00078
v -0.00648 -0.02334 -0.00387
v -0.00598 -0.02362 -0.00696
v -0.00458 -0.02385 -0.00957
v -0.00248 -0.02401 -0.01132
v -0.00000 -0.02407 -0.01194
v 0.00248 -0.02401 -0.01132
v 0.00458 -0.02385 -0.00957
v 0.00598 -0.02362 -0.00696
v 0.00638 -0.02419 -0.00378
v 0.00590 -0.02383 -0.00075
v 0.00451 -0.02353 0.00182
v 0.00244 -0.02333 0.00354
v 0.00000 -0.02326 0.00414
v -0.00244 -0.02333 0.00354
v -0.00451 -0.02353 0.00182
v -0.00590 -0.02383 -0.00075
v -0.00638 -0.02419 -0.00378
v -0.00590 -0.02454 -0.00682
v -0.00451 -0.02484 -0.00939
v -0.00244 -0.02504 -0.01111
v -0.00000 -0.02511 -0.01171
v 0.00244 -0.02504 -0.01111
v 0.00451 -0.02484 -0.00939
v 0.00590 -0.02454 -0.00682
v 0.00629 -0.02503 -0.00367
v 0.00581 -0.02461 -0.00070
v 0.00445 -0.02425 0.00183
v 0.00241 -0.02401 0.00352
v 0.00000 -0.02393 0.00411
v -0.00241 -0.02401 0.00352
v -0.00445 -0.02425 0.00183
v -0.00581 -0.02461 -0.00070
v -0.00629 -0.02503 -0.00367
v -0.00581 -0.02546 -0.00665
v -0.00445 -0.02582 -0.00918
v -0.00241 -0.02605 -0.01086
v -0.00000 -0.02614 -0.01145
v 0.00241 -0.02605 -0.01086
v 0.00445 -0.02582 -0.00918
v 0.00581 -0.02546 -0.00665
v 0.00619 -0.02588 -0.00354
v 0.00572 -0.02539 -0.00062
v 0.00438 -0.02498 0.00186
v 0.00237 -0.02471 0.00351
v 0.00000 -0.02461 0.00409
v -0.00237 -0.02471 0.00351
v -0.00438 -0.02498 0.00186
v -0.00572 -0.02539 -0.00062
v -0.00619 -0.02588 -0.00354
v -0.00572 -0.02637 -0.00646
v -0.00438 -0.02678 -0.00894
v -0.00237 -0.02706 -0.01060
v -0.00000 -0.02715 -0.01118
v 0.00237 -0.02706 -0.01060
v 0.00438 -0.02678 -0.00894
v 0.00572 -0.02637 -0.00646
v 0.00609 -0.02673 -0.00339
v 0.00563 -0.02618 -0.00053
v 0.00431 -0.02572 0.00190
v 0.00233 -0.02541 0.00352
v 0.00000 -0.02531 0.00409
v -0.00233 -0.02541 0.00352
v -0.00431 -0.02572 0.00190
v -0.00563 -0.02618 -0.00053
v -0.00609 -0.02673 -0.00339
v -0.00563 -0.02727 -0.00625
v -0.00431 -0.02774 -0.00868
v -0.00233 -0.02804 -0.01030
v -0.00000 -0.02815 -0.01087
v 0.00233 -0.02804 -0.01030
v 0.00431 -0.02774 -0.00868
v 0.00563 -0.02727 -0.00625
v 0.00600 -0.02758 -0.00322
v 0.00554 -0.02698 -0.00041
v 0.00424 -0.02647 0.00196
v 0.00229 -0.02614 0.00355
v 0.00000 -0.02602 0.00411
v -0.00229 -0.02614 0.00355
v -0.00424 -0.02647 0.00196
v -0.00554 -0.02698 -0.00041
v -0.00600 -0.02758 -0.00322
v -0.00554 -0.02817 -0.00603
v -0.00424 -0.02868 -0.00840
v -0.00229 -0.02902 -0.00999
v -0.00000 -0.02914 -0.01055
v 0.00229 -0.02902 -0.00999
v 0.00424 -0.02868 -0.00840
v 0.00554 -0.02817 -0.00603
v 0.00590 -0.02842 -0.00303
v 0.00545 -0.02778 -0.00028
v 0.00417 -0.02724 0.00204
v 0.00226 -0.02687 0.00360
v 0.00000 -0.02674 0.00415
v -0.00226 -0.02687 0.00360
v -0.00417 -0.02724 0.00204
v -0.00545 -0.02778 -0.00028
v -0.00590 -0.02842 -0.00303
v -0.00545 -0.02907 -0.00578
v -0.00417 -0.02961 -0.00810
v -0.00226 -0.02998 -0.00966
v -0.00000 -0.03010 -0.01021
v 0.00226 -0.02998 -0.00966
v 0.00417 -0.02961 -0.00810
v 0.00545 -0.02907 -0.00578
v 0.00580 -0.02927 -0.00282
v 0.00535 -0.02859 -0.00014
v 0.00410 -0.02801 0.00214
v 0.00222 -0.02762 0.00366
v 0.00000 -0.02749 0.00420
v -0.00222 -0.02762 0.00366
v -0.00410 -0.02801 0.00214
v -0.00535 -0.02859 -0.00014
v -0.00580 -0.02927 -0.00282
v -0.00535 -0.02995 -0.00551
v -0.00410 -0.03053 -0.00779
v -0.00222 -0.03092 -0.00931
v -0.00000 -0.03106 -0.00984
v 0.00222 -0.03092 -0.00931
v 0.00410 -0.03053 -0.00779
v 0.00535 -0.02995 -0.00551
v 0.00569 -0.03012 -0.00260
v 0.00526 -0.02940 0.00003
v 0.00403 -0.02879 0.00226
v 0.00218 -0.02839 0.00374
v 0.00000 -0.02825 0.00427
v -0.00218 -0.02839 0.00374
v -0.00403 -0.02879 0.00226
v -0.00526 -0.02940 0.00003
v -0.00569 -0.03012 -0.00260
v -0.00526 -0.03084 -0.00523
v -0.00403 -0.03144 -0.00746
v -0.00218 -0.03185 -0.00894
v -0.00000 -0.03199 -0.00947
v 0.00218 -0.03185 -0.00894
v 0.00403 -0.03144 -0.00746
v 0.00526 -0.03084 -0.00523
v 0.00559 -0.03097 -0.00236
v 0.00517 -0.03022 0.00021
v 0.00395 -0.02959 0.00239
v 0.00214 -0.02917 0.00384
v 0.00000 -0.02902 0.00435
v -0.00214 -0.02917 0.00384
v -0.00395 -0.02959 0.00239
v -0.00517 -0.03022 0.00021
v -0.00559 -0.03097 -0.00236
v -0.00517 -0.03171 -0.00493
v -0.00395 -0.03234 -0.00711
v -0.00214 -0.03276 -0.00856
v -0.00000 -0.03291 -0.00907
v 0.00214 -0.03276 -0.00856
v 0.00395 -0.03234 -0.00711
v 0.00517 -0.03171 -0.00493
v 0.00549 -0.03181 -0.00211
v 0.00507 -0.03105 0.00040
v 0.00388 -0.03040 0.00253
v 0.00210 -0.02997 0.00395
v 0.00000 -0.02981 0.00445
v -0.00210 -0.02997 0.00395
v -0.00388 -0.03040 0.00253
v -0.00507 -0.03105 0.00040
v -0.00549 -0.03181 -0.00211
v -0.00507 -0.03258 -0.00462
v -0.00388 -0.03323 -0.00675
v -0.00210 -0.03366 -0.00817
v -0.00000 -0.03381 -0.00867
v 0.00210 -0.03366 -0.00817
v 0.00388 -0.03323 -0.00675
v 0.00507 -0.03258 -0.00462
v 0.00538 -0.03266 -0.00184
v 0.00497 -0.03188 0.00061
v 0.00381 -0.03122 0.00269
v 0.00206 -0.03078 0.00408
v 0.00000 -0.03062 0.00457
v -0.00206 -0.03078 0.00408
v -0.00381 -0.03122 0.00269
v -0.00497 -0.03188 0.00061
v -0.00538 -0.03266 -0.00184
v -0.00497 -0.03344 -0.00430
v -0.00381 -0.03410 -0.00638
v -0.00206 -0.03455 -0.00777
v -0.00000 -0.03470 -0.00826
v 0.00206 -0.03455 -0.00777
v 0.00381 -0.03410 -0.00638
v 0.00497 -0.03344 -0.00430
v 0.00528 -0.03351 -0.00157
v 0.00487 -0.03272 0.00083
v 0.00373 -0.03205 0.00286
v 0.00202 -0.03160 0.00422
v 0.00000 -0.03144 0.00469
v -0.00202 -0.03160 0.00422
v -0.00373 -0.03205 0.00286
v -0.00487 -0.03272 0.00083
v -0.00528 -0.03351 -0.00157
v -0.00487 -0.03430 -0.00397
v -0.00373 -0.03497 -0.00600
v -0.00202 -0.03542 -0.00736
v -0.00000 -0.03558 -0.00783
v 0.00202 -0.03542 -0.00736
v 0.00373 -0.03497 -0.00600
v 0.00487 -0.03430 -0.00397
v 0.00517 -0.03436 -0.00129
v 0.00478 -0.03356 0.00106
v 0.00365 -0.03289 0.00304
v 0.00198 -0.03244 0.00437
v 0.00000 -0.03228 0.00483
v -0.00198 -0.03244 0.00437
v -0.00365 -0.03289 0.00304
v -0.00478 -0.03356 0.00106
v -0.00517 -0.03436 -0.00129
v -0.00478 -0.03515 -0.00363
v -0.00365 -0.03583 -0.00561
v -0.00198 -0.03628 -0.00694
v -0.00000 -0.03643 -0.00740
v 0.00198 -0.03628 -0.00694
v 0.00365 -0.03583 -0.00561
v 0.00478 -0.03515 -0.00363
v 0.00506 -0.03520 -0.00099
v 0.00467 -0.03441 0.00129
v 0.00358 -0.03374 0.00323
v 0.00194 -0.03329 0.00453
v 0.00000 -0.03313 0.00498
v -0.00194 -0.03329 0.00453
v -0.00358 -0.03374 0.00323
v -0.00467 -0.03441 0.00129
v -0.00506 -0.03520 -0.00099
v -0.00467 -0.03600 -0.00328
v -0.00358 -0.03667 -0.00522
v -0.00194 -0.03712 -0.00651
v -0.00000 -0.03728 -0.00697
v 0.00194 -0.03712 -0.00651
v 0.00358 -0.03667 -0.00522
v 0.00467 -0.03600 -0.00328
v 0.00495 -0.03605 -0.00070
v 0.00457 -0.03526 0.00154
v 0.00350 -0.03459 0.00343
v 0.00189 -0.03415 0.00469
v 0.00000 -0.03399 0.00514
v -0.00189 -0.03415 0.00469
v -0.00350 -0.03459 0.00343
v -0.00457 -0.03526 0.00154
v -0.00495 -0.03605 -0.00070
v -0.00457 -0.03684 -0.00293
v -0.00350 -0.03751 -0.00482
v -0.00189 -0.03795 -0.00609
v -0.00000 -0.03811 -0.00653
v 0.00189 -0.03795 -0.00609
v 0.00350 -0.03751 -0.00482
v 0.00457 -0.03684 -0.00293
v 0.00484 -0.03690 -0.00039
v 0.00447 -0.03612 0.00178
v 0.00342 -0.03546 0.00363
v 0.00185 -0.03502 0.00487
v 0.00000 -0.03487 0.00530
v -0.00185 -0.03502 0.00487
v -0.00342 -0.03546 0.00363
v -0.00447 -0.03612 0.00178
v -0.00484 -0.03690 -0.00039
v -0.00447 -0.03768 -0.00257
v -0.00342 -0.03834 -0.00442
v -0.00185 -0.03878 -0.00566
v -0.00000 -0.03893 -0.00609
v 0.00185 -0.03878 -0.00566
v 0.00342 -0.03834 -0.00442
v 0.00447 -0.03768 -0.00257
v 0.00472 -0.03775 -0.00009
v 0.00436 -0.03720 0.00210
v 0.00334 -0.03674 0.00396
v 0.00181 -0.03643 0.00520
v 0.00000 -0.03633 0.00564
v -0.00181 -0.03643 0.00520
v -0.00334 -0.03674 0.00396
v -0.00436 -0.03720 0.00210
v -0.00472 -0.03775 -0.00009
v -0.00436 -0.03829 -0.00228
v -0.00334 -0.03875 -0.00414
v -0.00181 -0.03906 -0.00538
v -0.00000 -0.03917 -0.00582
v 0.00181 -0.03906 -0.00538
v 0.00334 -0.03875 -0.00414
v 0.00436 -0.03829 -0.00228
v 0.00461 -0.03859 0.00003
v 0.00426 -0.03829 0.00221
v 0.00326 -0.03803 0.00406
v 0.00176 -0.03785 0.00529
v 0.00000 -0.03779 0.00573
v -0.00176 -0.03785 0.00529
v -0.00326 -0.03803 0.00406
v -0.00426 -0.03829 0.00221
v -0.00461 -0.03859 0.00003
v -0.00426 -0.03890 -0.00216
v -0.00326 -0.03916 -0.00401
v -0.00176 -0.03934 -0.00524
v -0.00000 -0.03940 -0.00568
v 0.00176 -0.03934 -0.00524
v 0.00326 -0.03916 -0.00401
v 0.00426 -0.03890 -0.00216
v 0.00449 -0.03944 0.00015
v 0.00415 -0.03901 0.00225
v 0.00317 -0.03864 0.00403
v 0.00172 -0.03840 0.00522
v 0.00000 -0.03831 0.00564
v -0.00172 -0.03840 0.00522
v -0.00317 -0.03864 0.00403
v -0.00415 -0.03901 0.00225
v -0.00449 -0.03944 0.00015
v -0.00415 -0.03987 -0.00196
v -0.00317 -0.04024 -0.00374
v -0.00172 -0.04048 -0.00493
v -0.00000 -0.04057 -0.00535
v 0.00172 -0.04048 -0.00493
v 0.00317 -0.04024 -0.00374
v 0.00415 -0.03987 -0.00196
v 0.00437 -0.04029 0.00037
v 0.00403 -0.03964 0.00236
v 0.00309 -0.03909 0.00404
v 0.00167 -0.03873 0.00517
v 0.00000 -0.03860 0.00556
v -0.00167 -0.03873 0.00517
v -0.00309 -0.03909 0.00404
v -0.00403 -0.03964 0.00236
v -0.00437 -0.04029 0.00037
v -0.00403 -0.04093 -0.00161
v -0.00309 -0.04148 -0.00330
v -0.00167 -0.04185 -0.00442
v -0.00000 -0.04198 -0.00482
v 0.00167 -0.04185 -0.00442
v 0.00309 -0.04148 -0.00330
v 0.00403 -0.04093 -0.00161
v 0.00424 -0.04114 0.00070
v 0.00392 -0.04031 0.00255
v 0.00300 -0.03961 0.00413
v 0.00162 -0.03914 0.00518
v 0.00000 -0.03897 0.00554
v -0.00162 -0.03914 0.00518
v -0.00300 -0.03961 0.00413
v -0.00392 -0.04031 0.00255
v -0.00424 -0.04114 0.00070
v -0.00392 -0.04196 -0.00116
v -0.00300 -0.04266 -0.00273
v -0.00162 -0.04313 -0.00378
v -0.00000 -0.04330 -0.00415
v 0.00162 -0.04313 -0.00378
v 0.00300 -0.04266 -0.00273
v 0.00392 -0.04196 -0.00116
v 0.00412 -0.04198 0.00113
v 0.00381 -0.04101 0.00284
v 0.00291 -0.04019 0.00430
v 0.00158 -0.03964 0.00527
v 0.00000 -0.03945 0.00561
v -0.00158 -0.03964 0.00527
v -0.00291 -0.04019 0.00430
v -0.00381 -0.04101 0.00284
v -0.00412 -0.04198 0.00113
v -0.00381 -0.04295 -0.00059
v -0.00291 -0.04378 -0.00204
v -0.00158 -0.04433 -0.00301
v -0.00000 -0.04452 -0.00335
v 0.00158 -0.04433 -0.00301
v 0.00291 -0.04378 -0.00204
v 0.00381 -0.04295 -0.00059
v 0.00399 -0.04283 0.00166
v 0.00369 -0.04175 0.00323
v 0.00282 -0.04083 0.00457
v 0.00153 -0.04022 0.00546
v 0.00000 -0.04001 0.00577
v -0.00153 -0.04022 0.00546
v -0.00282 -0.04083 0.00457
v -0.00369 -0.04175 0.00323
v -0.00399 -0.04283 0.00166
v -0.00369 -0.04391 0.00009
v -0.00282 -0.04483 -0.00125
v -0.00153 -0.04544 -0.00214
v -0.00000 -0.04565 -0.00245
v 0.00153 -0.04544 -0.00214
v 0.00282 -0.04483 -0.00125
v 0.00369 -0.04391 0.00009
v 0.00386 -0.04368 0.00229
v 0.00356 -0.04252 0.00373
v 0.00273 -0.04154 0.00495
v 0.00148 -0.04088 0.00576
v 0.00000 -0.04065 0.00604
v -0.00148 -0.04088 0.00576
v -0.00273 -0.04154 0.00495
v -0.00356 -0.04252 0.00373
v -0.00386 -0.04368 0.00229
v -0.00356 -0.04484 0.00086
v -0.00273 -0.04582 -0.00036
v -0.00148 -0.04648 -0.00117
v -0.00000 -0.04671 -0.00146
v 0.00148 -0.04648 -0.00117
v 0.00273 -0.04582 -0.00036
v 0.00356 -0.04484 0.00086
v 0.00372 -0.04453 0.00303
v 0.00344 -0.04331 0.00433
v 0.00263 -0.04229 0.00544
v 0.00142 -0.04160 0.00618
v 0.00000 -0.04136 0.00644
v -0.00142 -0.04160 0.00618
v -0.00263 -0.04229 0.00544
v -0.00344 -0.04331 0.00433
v -0.00372 -0.04453 0.00303
v -0.00344 -0.04574 0.00172
v -0.00263 -0.04676 0.00062
v -0.00142 -0.04745 -0.00012
v -0.00000 -0.04769 -0.00038
v 0.00142 -0.04745 -0.00012
v 0.00263 -0.04676 0.00062
v 0.00344 -0.04574 0.00172
v 0.00358 -0.04537 0.00387
v 0.00331 -0.04411 0.00503
v 0.00253 -0.04304 0.00601
v 0.00137 -0.04233 0.00667
v 0.00000 -0.04208 0.00690
v -0.00137 -0.04233 0.00667
v -0.00253 -0.04304 0.00601
v -0.00331 -0.04411 0.00503
v -0.00358 -0.04537 0.00387
v -0.00331 -0.04663 0.00270
v -0.00253 -0.04770 0.00172
v -0.00137 -0.04841 0.00106
v -0.00000 -0.04867 0.00083
v 0.00137 -0.04841 0.00106
v 0.00253 -0.04770 0.00172
v 0.00331 -0.04663 0.00270
v 0.00344 -0.04616 0.00481
v 0.00318 -0.04483 0.00577
v 0.00243 -0.04370 0.00659
v 0.00132 -0.04295 0.00713
v 0.00000 -0.04268 0.00732
v -0.00132 -0.04295 0.00713
v -0.00243 -0.04370 0.00659
v -0.00318 -0.04483 0.00577
v -0.00344 -0.04616 0.00481
v -0.00318 -0.04750 0.00384
v -0.00243 -0.04863 0.00302
v -0.00132 -0.04938 0.00248
v -0.00000 -0.04965 0.00229
v 0.00132 -0.04938 0.00248
v 0.00243 -0.04863 0.00302
v 0.00318 -0.04750 0.00384
v 0.00329 -0.04681 0.00585
v 0.00304 -0.04541 0.00657
v 0.00233 -0.04422 0.00718
v 0.00126 -0.04343 0.00759
v 0.00000 -0.04315 0.00773
v -0.00126 -0.04343 0.00759
v -0.00233 -0.04422 0.00718
v -0.00304 -0.04541 0.00657
v -0.00329 -0.04681 0.00585
v -0.00304 -0.04820 0.00513
v -0.00233 -0.04939 0.00451
v -0.00126 -0.05018 0.00411
v -0.00000 -0.05046 0.00396
v 0.00126 -0.05018 0.00411
v 0.00233 -0.04939 0.00451
v 0.00304 -0.04820 0.00513
v 0.00313 -0.04729 0.00699
v 0.00289 -0.04588 0.00748
v 0.00222 -0.04467 0.00789
v 0.00120 -0.04387 0.00817
v 0.00000 -0.04359 0.00826
v -0.00120 -0.04387 0.00817
v -0.00222 -0.04467 0.00789
v -0.00289 -0.04588 0.00748
v -0.00313 -0.04729 0.00699
v -0.00289 -0.04871 0.00650
v -0.00222 -0.04991 0.00609
v -0.00120 -0.05071 0.00581
v -0.00000 -0.05100 0.00572
v 0.00120 -0.05071 0.00581
v 0.00222 -0.04991 0.00609
v 0.00289 -0.04871 0.00650
v 0.00297 -0.04763 0.00824
v 0.00274 -0.04623 0.00851
v 0.00210 -0.04505 0.00875
v 0.00114 -0.04426 0.00890
v 0.00000 -0.04399 0.00896
v -0.00114 -0.04426 0.00890
v -0.00210 -0.04505 0.00875
v -0.00274 -0.04623 0.00851
v -0.00297 -0.04763 0.00824
v -0.00274 -0.04902 0.00796
v -0.00210 -0.05020 0.00773
v -0.00114 -0.05099 0.00757
v -0.00000 -0.05127 0.00751
v 0.00114 -0.05099 0.00757
v 0.00210 -0.05020 0.00773
v 0.00274 -0.04902 0.00796
v 0.00279 -0.04781 0.00959
v 0.00258 -0.04648 0.00968
v 0.00198 -0.04535 0.00977
v 0.00107 -0.04459 0.00983
v 0.00000 -0.04433 0.00985
v -0.00107 -0.04459 0.00983
v -0.00198 -0.04535 0.00977
v -0.00258 -0.04648 0.00968
v -0.00279 -0.04781 0.00959
v -0.00258 -0.04914 0.00949
v -0.00198 -0.05027 0.00940
v -0.00107 -0.05103 0.00935
v -0.00000 -0.05129 0.00933
v 0.00107 -0.05103 0.00935
v 0.00198 -0.05027 0.00940
v 0.00258 -0.04914 0.00949
v 0.00261 -0.04784 0.01104
v 0.00241 -0.04659 0.01100
v 0.00184 -0.04553 0.01096
v 0.00100 -0.04483 0.01094
v 0.00000 -0.04458 0.01093
v -0.00100 -0.04483 0.01094
v -0.00184 -0.04553 0.01096
v -0.00241 -0.04659 0.01100
v -0.00261 -0.04784 0.01104
v -0.00241 -0.04908 0.01108
v -0.00184 -0.05014 0.01111
v -0.00100 -0.05084 0.01113
v -0.00000 -0.05109 0.01114
v 0.00100 -0.05084 0.01113
v 0.00184 -0.05014 0.01111
v 0.00241 -0.04908 0.01108
v 0.00240 -0.04771 0.01259
v 0.00221 -0.04657 0.01245
v 0.00169 -0.04561 0.01232
v 0.00092 -0.04496 0.01224
v 0.00000 -0.04474 0.01221
v -0.00092 -0.04496 0.01224
v -0.00169 -0.04561 0.01232
v -0.00221 -0.04657 0.01245
v -0.00240 -0.04771 0.01259
v -0.00221 -0.04885 0.01273
v -0.00169 -0.04981 0.01285
v -0.00092 -0.05046 0.01293
v -0.00000 -0.05068 0.01296
v 0.00092 -0.05046 0.01293
v 0.00169 -0.04981 0.01285
v 0.00221 -0.04885 0.01273
v 0.00215 -0.04743 0.01424
v 0.00199 -0.04642 0.01403
v 0.00152 -0.04557 0.01386
v 0.00082 -0.04500 0.01374
v 0.00000 -0.04480 0.01369
v -0.00082 -0.04500 0.01374
v -0.00152 -0.04557 0.01386
v -0.00199 -0.04642 0.01403
v -0.00215 -0.04743 0.01424
v -0.00199 -0.04844 0.01445
v -0.00152 -0.04929 0.01463
v -0.00082 -0.04986 0.01475
v -0.00000 -0.05006 0.01479
v 0.00082 -0.04986 0.01475
v 0.00152 -0.04929 0.01463
v 0.00199 -0.04844 0.01445
v 0.00176 -0.04700 0.01600
v 0.00163 -0.04618 0.01580
v 0.00124 -0.04549 0.01563
v 0.00067 -0.04503 0.01551
v 0.00000 -0.04486 0.01547
v -0.00067 -0.04503 0.01551
v -0.00124 -0.04549 0.01563
v -0.00163 -0.04618 0.01580
v -0.00176 -0.04700 0.01600
v -0.00163 -0.04782 0.01620
v -0.00124 -0.04851 0.01637
v -0.00067 -0.04897 0.01649
v -0.00000 -0.04914 0.01653
v 0.00067 -0.04897 0.01649
v 0.00124 -0.04851 0.01637
v 0.00163 -0.04782 0.01620
v 0.00000 -0.00300 0.00000
v 0.00000 -0.04700 0.01600
f 1 18 17
f 1 2 18
f 2 19 18
f 2 3 19
f 3 20 19
f 3 4 20
f 4 21 20
f 4 5 21
f 5 22 21
f 5 6 22
f 6 23 22
f 6 7 23
f 7 24 23
f 7 8 24
f 8 25 24
f 8 9 25
f 9 26 25
f 9 10 26
f 10 27 26
f 10 11 27
f 11 28 27
f 11 12 28
f 12 29 28
f 12 13 29
f 13 30 29
f 13 14 30
f 14 31 30
f 14 15 31
f 15 32 31
f 15 16 32
f 16 17 32
f 16 1 17
f 17 34 33
f 17 18 34
f 18 35 34
f 18 19 35
f 19 36 35
f 19 20 36
f 20 37 36
f 20 21 37
f 21 38 37
f 21 22 38
f 22 39 38
f 22 23 39
f 23 40 39
f 23 24 40
f 24 41 40
f 24 25 41
f 25 42 41
f 25 26 42
f 26 43 42
f 26 27 43
f 27 44 43
f 27 28 44
f 28 45 44
f 28 29 45
f 29 46 45
f 29 30 46
f 30 47 46
f 30 31 47
f 31 48 47
f 31 32 48
f 32 33 48
f 32 17 33
f 33 50 49
f 33 34 50
f 34 51 50
f 34 35 51
f 35 52 51
f 35 36 52
f 36 53 52
f 36 37 53
f 37 54 53
f 37 38 54
f 38 55 54
f 38 39 55
f 39 56 55
f 39 40 56
f 40 57 56
f 40 41 57
f 41 58 57
f 41 42 58
f 42 59 58
f 42 43 59
f 43 60 59
f 43 44 60
f 44 61 60
f 44 45 61
f 45 62 61
f 45 46 62
f 46 63 62
f 46 47 63
f 47 64 63
f 47 48 64
f 48 49 64
f 48 33 49
f 49 66 65
f 49 50 66
f 50 67 66
f 50 51 67
f 51 68 67
f 51 52 68
f 52 69 68
f 52 53 69
f 53 70 69
f 53 54 70
f 54 71 70
f 54 55 71
f 55 72 71
f 55 56 72
f 56 73 72
f 56 57 73
f 57 74 73
f 57 58 74
f 58 75 74
f 58 59 75
f 59 76 75
f 59 60 76
f 60 77 76
f 60 61 77
f 61 78 77
f 61 62 78
f 62 79 78
f 62 63 79
f 63 80 79
f 63 64 80
f 64 65 80
f 64 49 65
f 65 82 81
f 65 66 82
f 66 83 82
f 66 67 83
f 67 84 83
f 67 68 84
f 68 85 84
f 68 69 85
f 69 86 85
f 69 70 86
f 70 87 86
f 70 71 87
f 71 88 87
f 71 72 88
f 72 89 88
f 72 73 89
f 73 90 89
f 73 74 90
f 74 91 90
f 74 75 91
f 75 92 91
f 75 76 92
f 76 93 92
f 76 77 93
f 77 94 93
f 77 78 94
f 78 95 94
f 78 79 95
f 79 96 95
f 79 80 96
f 80 81 96
f 80 65 81
f 81 98 97
f 81 82 98
f 82 99 98
f 82 83 99
f 83 100 99
f 83 84 100
f 84 101 100
f 84 85 101
f 85 102 101
f 85 86 102
f 86 103 102
f 86 87 103
f 87 104 103
f 87 88 104
f 88 105 104
f 88 89 105
f 89 106 105
f 89 90 106
f 90 107 106
f 90 91 107
f 91 108 107
f 91 92 108
f 92 109 108
f 92 93 109
f 93 110 109
f 93 94 110
f 94 111 110
f 94 95 111
f 95 112 111
f 95 96 112
f 96 97 112
f 96 81 97
f 97 114 113
f 97 98 114
f 98 115 114
f 98 99 115
f 99 116 115
f 99 100 116
f 100 117 116
f 100 101 117
f 101 118 117
f 101 102 118
f 102 119 118
f 102 103 119
f 103 120 119
f 103 104 120
f 104 121 120
f 104 105 121
f 105 122 121
f 105 106 122
f 106 123 122
f 106 107 123
f 107 124 123
f 107 108 124
f 108 125 124
f 108 109 125
f 109 126 125
f 109 110 126
f 110 127 126
f 110 111 127
f 111 128 127
f 111 112 128
f 112 113 128
f 112 97 113
f 113 130 129
f 113 114 130
f 114 131 130
f 114 115 131
f 115 132 131
f 115 116 132
f 116 133 132
f 116 117 133
f 117 134 133
f 117 118 134
f 118 135 134
f 118 119 135
f 119 136 135
f 119 120 136
f 120 137 136
f 120 121 137
f 121 138 137
f 121 122 138
f 122 139 138
f 122 123 139
f 123 140 139
f 123 124 140
f 124 141 140
f 124 125 141
f 125 142 141
f 125 126 142
f 126 143 142
f 126 127 143
f 127 144 143
f 127 128 144
f 128 129 144
f 128 113 129
f 129 146 145
f 129 130 146
f 130 147 146
f 130 131 147
f 131 148 147
f 131 132 148
f 132 149 148
f 132 133 149
f 133 150 149
f 133 134 150
f 134 151 150
f 134 135 151
f 135 152 151
f 135 136 152
f 136 153 152
f 136 137 153
f 137 154 153
f 137 138 154
f 138 155 154
f 138 139 155
f 139 156 155
f 139 140 156
f 140 157 156
f 140 141 157
f 141 158 157
f 141 142 158
f 142 159 158
f 142 143 159
f 143 160 159
f 143 144 160
f 144 145 160
f 144 129 145
f 145 162 161
f 145 146 162
f 146 163 162
f 146 147 163
f 147 164 163
f 147 148 164
f 148 165 164
f 148 149 165
f 149 166 165
f 149 150 166
f 150 167 166
f 150 151 167
f 151 168 167
f 151 152 168
f 152 169 168
f 152 153 169
f 153 170 169
f 153 154 170
f 154 171 170
f 154 155 171
f 155 172 171
f 155 156 172
f 156 173 172
f 156 157 173
f 157 174 173
f 157 158 174
f 158 175 174
f 158 159 175
f 159 176 175
f 159 160 176
f 160 161 176
f 160 145 161
f 161 178 177
f 161 162 178
f 162 179 178
f 162 163 179
f 163 180 179
f 163 164 180
f 164 181 180
f 164 165 181
f 165 182 181
f 165 166 182
f 166 183 182
f 166 167 183
f 167 184 183
f 167 168 184
f 168 185 184
f 168 169 185
f 169 186 185
f 169 170 186
f 170 187 186
f 170 171 187
f 171 188 187
f 171 172 188
f 172 189 188
f 172 173 189
f 173 190 189
f 173 174 190
f 174 191 190
f 174 175 191
f 175 192 191
f 175 176 192
f 176 177 192
f 176 161 177
f 177 194 193
f 177 178 194
f 178 195 194
f 178 179 195
f 179 196 195
f 179 180 196
f 180 197 196
f 180 181 197
f 181 198 197
f 181 182 198
f 182 199 198
f 182 183 199
f 183 200 199
f 183 184 200
f 184 201 200
f 184 185 201
f 185 202 201
f 185 186 202
f 186 203 202
f 186 187 203
f 187 204 203
f 187 188 204
f 188 205 204
f 188 189 205
f 189 206 205
f 189 190 206
f 190 207 206
f 190 191 207
f 191 208 207
f 191 192 208
f 192 193 208
f 192 177 193
f 193 210 209
f 193 194 210
f 194 211 210
f 194 195 211
f 195 212 211
f 195 196 212
f 196 213 212
f 196 197 213
f 197 214 213
f 197 198 214
f 198 215 214
f 198 199 215
f 199 216 215
f 199 200 216
f 200 217 216
f 200 201 217
f 201 218 217
f 201 202 218
f 202 219 218
f 202 203 219
f 203 220 219
f 203 204 220
f 204 221 220
f 204 205 221
f 205 222 221
f 205 206 222
f 206 223 222
f 206 207 223
f 207 224 223
f 207 208 224
f 208 209 224
f 208 193 209
f 209 226 225
f 209 210 226
f 210 227 226
f 210 211 227
f 211 228 227
f 211 212 228
f 212 229 228
f 212 213 229
f 213 230 229
f 213 214 230
f 214 231 230
f 214 215 231
f 215 232 231
f 215 216 232
f 216 233 232
f 216 217 233
f 217 234 233
f 217 218 234
f 218 235 234
f 218 219 235
f 219 236 235
f 219 220 236
f 220 237 236
f 220 221 237
f 221 238 237
f 221 222 238
f 222 239 238
f 222 223 239
f 223 240 239
f 223 224 240
f 224 225 240
f 224 209 225
f 225 242 241
f 225 226 242
f 226 243 242
f 226 227 243
f 227 244 243
f 227 228 244
f 228 245 244
f 228 229 245
f 229 246 245
f 229 230 246
f 230 247 246
f 230 231 247
f 231 248 247
f 231 232 248
f 232 249 248
f 232 233 249
f 233 250 249
f 233 234 250
f 234 251 250
f 234 235 251
f 235 252 251
f 235 236 252
f 236 253 252
f 236 237 253
f 237 254 253
f 237 238 254
f 238 255 254
f 238 239 255
f 239 256 255
f 239 240 256
f 240 241 256
f 240 225 241
f 241 258 257
f 241 242 258
f 242 259 258
f 242 243 259
f 243 260 259
f 243 244 260
f 244 261 260
f 244 245 261
f 245 262 261
f 245 246 262
f 246 263 262
f 246 247 263
f 247 264 263
f 247 248 264
f 248 265 264
f 248 249 265
f 249 266 265
f 249 250 266
f 250 267 266
f 250 251 267
f 251 268 267
f 251 252 268
f 252 269 268
f 252 253 269
f 253 270 269
f 253 254 270
f 254 271 270
f 254 255 271
f 255 272 271
f 255 256 272
f 256 257 272
f 256 241 257
f 257 274 273
f 257 258 274
f 258 275 274
f 258 259 275
f 259 276 275
f 259 260 276
f 260 277 276
f 260 261 277
f 261 278 277
f 261 262 278
f 262 279 278
f 262 263 279
f 263 280 279
f 263 264 280
f 264 281 280
f 264 265 281
f 265 282 281
f 265 266 282
f 266 283 282
f 266 267 283
f 267 284 283
f 267 268 284
f 268 285 284
f 268 269 285
f 269 286 285
f 269 270 286
f 270 287 286
f 270 271 287
f 271 288 287
f 271 272 288
f 272 273 288
f 272 257 273
f 273 290 289
f 273 274 290
f 274 291 290
f 274 275 291
f 275 292 291
f 275 276 292
f 276 293 292
f 276 277 293
f 277 294 293
f 277 278 294
f 278 295 294
f 278 279 295
f 279 296 295
f 279 280 296
f 280 297 296
f 280 281 297
f 281 298 297
f 281 282 298
f 282 299 298
f 282 283 299
f 283 300 299
f 283 284 300
f 284 301 300
f 284 285 301
f 285 302 301
f 285 286 302
f 286 303 302
f 286 287 303
f 287 304 303
f 287 288 304
f 288 289 304
f 288 273 289
f 289 306 305
f 289 290 306
f 290 307 306
f 290 291 307
f 291 308 307
f 291 292 308
f 292 309 308
f 292 293 309
f 293 310 309
f 293 294 310
f 294 311 310
f 294 295 311
f 295 312 311
f 295 296 312
f 296 313 312
f 296 297 313
f 297 314 313
f 297 298 314
f 298 315 314
f 298 299 315
f 299 316 315
f 299 300 316
f 300 317 316
f 300 301 317
f 301 318 317
f 301 302 318
f 302 319 318
f 302 303 319
f 303 320 319
f 303 304 320
f 304 305 320
f 304 289 305
f 305 322 321
f 305 306 322
f 306 323 322
f 306 307 323
f 307 324 323
f 307 308 324
f 308 325 324
f 308 309 325
f 309 326 325
f 309 310 326
f 310 327 326
f 310 311 327
f 311 328 327
f 311 312 328
f 312 329 328
f 312 313 329
f 313 330 329
f 313 314 330
f 314 331 330
f 314 315 331
f 315 332 331
f 315 316 332
f 316 333 332
f 316 317 333
f 317 334 333
f 317 318 334
f 318 335 334
f 318 319 335
f 319 336 335
f 319 320 336
f 320 321 336
f 320 305 321
f 321 338 337
f 321 322 338
f 322 339 338
f 322 323 339
f 323 340 339
f 323 324 340
f 324 341 340
f 324 325 341
f 325 342 341
f 325 326 342
f 326 343 342
f 326 327 343
f 327 344 343
f 327 328 344
f 328 345 344
f 328 329 345
f 329 346 345
f 329 330 346
f 330 347 346
f 330 331 347
f 331 348 347
f 331 332 348
f 332 349 348
f 332 333 349
f 333 350 349
f 333 334 350
f 334 351 350
f 334 335 351
f 335 352 351
f 335 336 352
f 336 337 352
f 336 321 337
f 337 354 353
f 337 338 354
f 338 355 354
f 338 339 355
f 339 356 355
f 339 340 356
f 340 357 356
f 340 341 357
f 341 358 357
f 341 342 358
f 342 359 358
f 342 343 359
f 343 360 359
f 343 344 360
f 344 361 360
f 344 345 361
f 345 362 361
f 345 346 362
f 346 363 362
f 346 347 363
f 347 364 363
f 347 348 364
f 348 365 364
f 348 349 365
f 349 366 365
f 349 350 366
f 350 367 366
f 350 351 367
f 351 368 367
f 351 352 368
f 352 353 368
f 352 337 353
f 353 370 369
f 353 354 370
f 354 371 370
f 354 355 371
f 355 372 371
f 355 356 372
f 356 373 372
f 356 357 373
f 357 374 373
f 357 358 374
f 358 375 374
f 358 359 375
f 359 376 375
f 359 360 376
f 360 377 376
f 360 361 377
f 361 378 377
f 361 362 378
f 362 379 378
f 362 363 379
f 363 380 379
f 363 364 380
f 364 381 380
f 364 365 381
f 365 382 381
f 365 366 382
f 366 383 382
f 366 367 383
f 367 384 383
f 367 368 384
f 368 369 384
f 368 353 369
f 369 386 385
f 369 370 386
f 370 387 386
f 370 371 387
f 371 388 387
f 371 372 388
f 372 389 388
f 372 373 389
f 373 390 389
f 373 374 390
f 374 391 390
f 374 375 391
f 375 392 391
f 375 376 392
f 376 393 392
f 376 377 393
f 377 394 393
f 377 378 394
f 378 395 394
f 378 379 395
f 379 396 395
f 379 380 396
f 380 397 396
f 380 381 397
f 381 398 397
f 381 382 398
f 382 399 398
f 382 383 399
f 383 400 399
f 383 384 400
f 384 385 400
f 384 369 385
f 385 402 401
f 385 386 402
f 386 403 402
f 386 387 403
f 387 404 403
f 387 388 404
f 388 405 404
f 388 389 405
f 389 406 405
f 389 390 406
f 390 407 406
f 390 391 407
f 391 408 407
f 391 392 408
f 392 409 408
f 392 393 409
f 393 410 409
f 393 394 410
f 394 411 410
f 394 395 411
f 395 412 411
f 395 396 412
f 396 413 412
f 396 397 413
f 397 414 413
f 397 398 414
f 398 415 414
f 398 399 415
f 399 416 415
f 399 400 416
f 400 401 416
f 400 385 401
f 401 418 417
f 401 402 418
f 402 419 418
f 402 403 419
f 403 420 419
f 403 404 420
f 404 421 420
f 404 405 421
f 405 422 421
f 405 406 422
f 406 423 422
f 406 407 423
f 407 424 423
f 407 408 424
f 408 425 424
f 408 409 425
f 409 426 425
f 409 410 426
f 410 427 426
f 410 411 427
f 411 428 427
f 411 412 428
f 412 429 428
f 412 413 429
f 413 430 429
f 413 414 430
f 414 431 430
f 414 415 431
f 415 432 431
f 415 416 432
f 416 417 432
f 416 401 417
f 417 434 433
f 417 418 434
f 418 435 434
f 418 419 435
f 419 436 435
f 419 420 436
f 420 437 436
f 420 421 437
f 421 438 437
f 421 422 438
f 422 439 438
f 422 423 439
f 423 440 439
f 423 424 440
f 424 441 440
f 424 425 441
f 425 442 441
f 425 426 442
f 426 443 442
f 426 427 443
f 427 444 443
f 427 428 444
f 428 445 444
f 428 429 445
f 429 446 445
f 429 430 446
f 430 447 446
f 430 431 447
f 431 448 447
f 431 432 448
f 432 433 448
f 432 417 433
f 433 450 449
f 433 434 450
f 434 451 450
f 434 435 451
f 435 452 451
f 435 436 452
f 436 453 452
f 436 437 453
f 437 454 453
f 437 438 454
f 438 455 454
f 438 439 455
f 439 456 455
f 439 440 456
f 440 457 456
f 440 441 457
f 441 458 457
f 441 442 458
f 442 459 458
f 442 443 459
f 443 460 459
f 443 444 460
f 444 461 460
f 444 445 461
f 445 462 461
f 445 446 462
f 446 463 462
f 446 447 463
f 447 464 463
f 447 448 464
f 448 449 464
f 448 433 449
f 449 466 465
f 449 450 466
f 450 467 466
f 450 451 467
f 451 468 467
f 451 452 468
f 452 469 468
f 452 453 469
f 453 470 469
f 453 454 470
f 454 471 470
f 454 455 471
f 455 472 471
f 455 456 472
f 456 473 472
f 456 457 473
f 457 474 473
f 457 458 474
f 458 475 474
f 458 459 475
f 459 476 475
f 459 460 476
f 460 477 476
f 460 461 477
f 461 478 477
f 461 462 478
f 462 479 478
f 462 463 479
f 463 480 479
f 463 464 480
f 464 465 480
f 464 449 465
f 465 482 481
f 465 466 482
f 466 483 482
f 466 467 483
f 467 484 483
f 467 468 484
f 468 485 484
f 468 469 485
f 469 486 485
f 469 470 486
f 470 487 486
f 470 471 487
f 471 488 487
f 471 472 488
f 472 489 488
f 472 473 489
f 473 490 489
f 473 474 490
f 474 491 490
f 474 475 491
f 475 492 491
f 475 476 492
f 476 493 492
f 476 477 493
f 477 494 493
f 477 478 494
f 478 495 494
f 478 479 495
f 479 496 495
f 479 480 496
f 480 481 496
f 480 465 481
f 481 498 497
f 481 482 498
f 482 499 498
f 482 483 499
f 483 500 499
f 483 484 500
f 484 501 500
f 484 485 501
f 485 502 501
f 485 486 502
f 486 503 502
f 486 487 503
f 487 504 503
f 487 488 504
f 488 505 504
f 488 489 505
f 489 506 505
f 489 490 506
f 490 507 506
f 490 491 507
f 491 508 507
f 491 492 508
f 492 509 508
f 492 493 509
f 493 510 509
f 493 494 510
f 494 511 510
f 494 495 511
f 495 512 511
f 495 496 512
f 496 497 512
f 496 481 497
f 497 514 513
f 497 498 514
f 498 515 514
f 498 499 515
f 499 516 515
f 499 500 516
f 500 517 516
f 500 501 517
f 501 518 517
f 501 502 518
f 502 519 518
f 502 503 519
f 503 520 519
f 503 504 520
f 504 521 520
f 504 505 521
f 505 522 521
f 505 506 522
f 506 523 522
f 506 507 523
f 507 524 523
f 507 508 524
f 508 525 524
f 508 509 525
f 509 526 525
f 509 510 526
f 510 527 526
f 510 511 527
f 511 528 527
f 511 512 528
f 512 513 528
f 512 497 513
f 513 530 529
f 513 514 530
f 514 531 530
f 514 515 531
f 515 532 531
f 515 516 532
f 516 533 532
f 516 517 533
f 517 534 533
f 517 518 534
f 518 535 534
f 518 519 535
f 519 536 535
f 519 520 536
f 520 537 536
f 520 521 537
f 521 538 537
f 521 522 538
f 522 539 538
f 522 523 539
f 523 540 539
f 523 524 540
f 524 541 540
f 524 525 541
f 525 542 541
f 525 526 542
f 526 543 542
f 526 527 543
f 527 544 543
f 527 528 544
f 528 529 544
f 528 513 529
f 529 546 545
f 529 530 546
f 530 547 546
f 530 531 547
f 531 548 547
f 531 532 548
f 532 549 548
f 532 533 549
f 533 550 549
f 533 534 550
f 534 551 550
f 534 535 551
f 535 552 551
f 535 536 552
f 536 553 552
f 536 537 553
f 537 554 553
f 537 538 554
f 538 555 554
f 538 539 555
f 539 556 555
f 539 540 556
f 540 557 556
f 540 541 557
f 541 558 557
f 541 542 558
f 542 559 558
f 542 543 559
f 543 560 559
f 543 544 560
f 544 545 560
f 544 529 545
f 545 562 561
f 545 546 562
f 546 563 562
f 546 547 563
f 547 564 563
f 547 548 564
f 548 565 564
f 548 549 565
f 549 566 565
f 549 550 566
f 550 567 566
f 550 551 567
f 551 568 567
f 551 552 568
f 552 569 568
f 552 553 569
f 553 570 569
f 553 554 570
f 554 571 570
f 554 555 571
f 555 572 571
f 555 556 572
f 556 573 572
f 556 557 573
f 557 574 573
f 557 558 574
f 558 575 574
f 558 559 575
f 559 576 575
f 559 560 576
f 560 561 576
f 560 545 561
f 561 578 577
f 561 562 578
f 562 579 578
f 562 563 579
f 563 580 579
f 563 564 580
f 564 581 580
f 564 565 581
f 565 582 581
f 565 566 582
f 566 583 582
f 566 567 583
f 567 584 583
f 567 568 584
f 568 585 584
f 568 569 585
f 569 586 585
f 569 570 586
f 570 587 586
f 570 571 587
f 571 588 587
f 571 572 588
f 572 589 588
f 572 573 589
f 573 590 589
f 573 574 590
f 574 591 590
f 574 575 591
f 575 592 591
f 575 576 592
f 576 577 592
f 576 561 577
f 577 594 593
f 577 578 594
f 578 595 594
f 578 579 595
f 579 596 595
f 579 580 596
f 580 597 596
f 580 581 597
f 581 598 597
f 581 582 598
f 582 599 598
f 582 583 599
f 583 600 599
f 583 584 600
f 584 601 600
f 584 585 601
f 585 602 601
f 585 586 602
f 586 603 602
f 586 587 603
f 587 604 603
f 587 588 604
f 588 605 604
f 588 589 605
f 589 606 605
f 589 590 606
f 590 607 606
f 590 591 607
f 591 608 607
f 591 592 608
f 592 593 608
f 592 577 593
f 593 610 609
f 593 594 610
f 594 611 610
f 594 595 611
f 595 612 611
f 595 596 612
f 596 613 612
f 596 597 613
f 597 614 613
f 597 598 614
f 598 615 614
f 598 599 615
f 599 616 615
f 599 600 616
f 600 617 616
f 600 601 617
f 601 618 617
f 601 602 618
f 602 619 618
f 602 603 619
f 603 620 619
f 603 604 620
f 604 621 620
f 604 605 621
f 605 622 621
f 605 606 622
f 606 623 622
f 606 607 623
f 607 624 623
f 607 608 624
f 608 609 624
f 608 593 609
f 609 626 625
f 609 610 626
f 610 627 626
f 610 611 627
f 611 628 627
f 611 612 628
f 612 629 628
f 612 613 629
f 613 630 629
f 613 614 630
f 614 631 630
f 614 615 631
f 615 632 631
f 615 616 632
f 616 633 632
f 616 617 633
f 617 634 633
f 617 618 634
f 618 635 634
f 618 619 635
f 619 636 635
f 619 620 636
f 620 637 636
f 620 621 637
f 621 638 637
f 621 622 638
f 622 639 638
f 622 623 639
f 623 640 639
f 623 624 640
f 624 625 640
f 624 609 625
f 625 642 641
f 625 626 642
f 626 643 642
f 626 627 643
f 627 644 643
f 627 628 644
f 628 645 644
f 628 629 645
f 629 646 645
f 629 630 646
f 630 647 646
f 630 631 647
f 631 648 647
f 631 632 648
f 632 649 648
f 632 633 649
f 633 650 649
f 633 634 650
f 634 651 650
f 634 635 651
f 635 652 651
f 635 636 652
f 636 653 652
f 636 637 653
f 637 654 653
f 637 638 654
f 638 655 654
f 638 639 655
f 639 656 655
f 639 640 656
f 640 641 656
f 640 625 641
f 641 658 657
f 641 642 658
f 642 659 658
f 642 643 659
f 643 660 659
f 643 644 660
f 644 661 660
f 644 645 661
f 645 662 661
f 645 646 662
f 646 663 662
f 646 647 663
f 647 664 663
f 647 648 664
f 648 665 664
f 648 649 665
f 649 666 665
f 649 650 666
f 650 667 666
f 650 651 667
f 651 668 667
f 651 652 668
f 652 669 668
f 652 653 669
f 653 670 669
f 653 654 670
f 654 671 670
f 654 655 671
f 655 672 671
f 655 656 672
f 656 657 672
f 656 641 657
f 657 674 673
f 657 658 674
f 658 675 674
f 658 659 675
f 659 676 675
f 659 660 676
f 660 677 676
f 660 661 677
f 661 678 677
f 661 662 678
f 662 679 678
f 662 663 679
f 663 680 679
f 663 664 680
f 664 681 680
f 664 665 681
f 665 682 681
f 665 666 682
f 666 683 682
f 666 667 683
f 667 684 683
f 667 668 684
f 668 685 684
f 668 669 685
f 669 686 685
f 669 670 686
f 670 687 686
f 670 671 687
f 671 688 687
f 671 672 688
f 672 673 688
f 672 657 673
f 673 690 689
f 673 674 690
f 674 691 690
f 674 675 691
f 675 692 691
f 675 676 692
f 676 693 692
f 676 677 693
f 677 694 693
f 677 678 694
f 678 695 694
f 678 679 695
f 679 696 695
f 679 680 696
f 680 697 696
f 680 681 697
f 681 698 697
f 681 682 698
f 682 699 698
f 682 683 699
f 683 700 699
f 683 684 700
f 684 701 700
f 684 685 701
f 685 702 701
f 685 686 702
f 686 703 702
f 686 687 703
f 687 704 703
f 687 688 704
f 688 689 704
f 688 673 689
f 689 706 705
f 689 690 706
f 690 707 706
f 690 691 707
f 691 708 707
f 691 692 708
f 692 709 708
f 692 693 709
f 693 710 709
f 693 694 710
f 694 711 710
f 694 695 711
f 695 712 711
f 695 696 712
f 696 713 712
f 696 697 713
f 697 714 713
f 697 698 714
f 698 715 714
f 698 699 715
f 699 716 715
f 699 700 716
f 700 717 716
f 700 701 717
f 701 718 717
f 701 702 718
f 702 719 718
f 702 703 719
f 703 720 719
f 703 704 720
f 704 705 720
f 704 689 705
f 705 722 721
f 705 706 722
f 706 723 722
f 706 707 723
f 707 724 723
f 707 708 724
f 708 725 724
f 708 709 725
f 709 726 725
f 709 710 726
f 710 727 726
f 710 711 727
f 711 728 727
f 711 712 728
f 712 729 728
f 712 713 729
f 713 730 729
f 713 714 730
f 714 731 730
f 714 715 731
f 715 732 731
f 715 716 732
f 716 733 732
f 716 717 733
f 717 734 733
f 717 718 734
f 718 735 734
f 718 719 735
f 719 736 735
f 719 720 736
f 720 721 736
f 720 705 721
f 721 738 737
f 721 722 738
f 722 739 738
f 722 723 739
f 723 740 739
f 723 724 740
f 724 741 740
f 724 725 741
f 725 742 741
f 725 726 742
f 726 743 742
f 726 727 743
f 727 744 743
f 727 728 744
f 728 745 744
f 728 729 745
f 729 746 745
f 729 730 746
f 730 747 746
f 730 731 747
f 731 748 747
f 731 732 748
f 732 749 748
f 732 733 749
f 733 750 749
f 733 734 750
f 734 751 750
f 734 735 751
f 735 752 751
f 735 736 752
f 736 737 752
f 736 721 737
f 737 754 753
f 737 738 754
f 738 755 754
f 738 739 755
f 739 756 755
f 739 740 756
f 740 757 756
f 740 741 757
f 741 758 757
f 741 742 758
f 742 759 758
f 742 743 759
f 743 760 759
f 743 744 760
f 744 761 760
f 744 745 761
f 745 762 761
f 745 746 762
f 746 763 762
f 746 747 763
f 747 764 763
f 747 748 764
f 748 765 764
f 748 749 765
f 749 766 765
f 749 750 766
f 750 767 766
f 750 751 767
f 751 768 767
f 751 752 768
f 752 753 768
f 752 737 753
f 753 770 769
f 753 754 770
f 754 771 770
f 754 755 771
f 755 772 771
f 755 756 772
f 756 773 772
f 756 757 773
f 757 774 773
f 757 758 774
f 758 775 774
f 758 759 775
f 759 776 775
f 759 760 776
f 760 777 776
f 760 761 777
f 761 778 777
f 761 762 778
f 762 779 778
f 762 763 779
f 763 780 779
f 763 764 780
f 764 781 780
f 764 765 781
f 765 782 781
f 765 766 782
f 766 783 782
f 766 767 783
f 767 784 783
f 767 768 784
f 768 769 784
f 768 753 769
f 769 786 785
f 769 770 786
f 770 787 786
f 770 771 787
f 771 788 787
f 771 772 788
f 772 789 788
f 772 773 789
f 773 790 789
f 773 774 790
f 774 791 790
f 774 775 791
f 775 792 791
f 775 776 792
f 776 793 792
f 776 777 793
f 777 794 793
f 777 778 794
f 778 795 794
f 778 779 795
f 779 796 795
f 779 780 796
f 780 797 796
f 780 781 797
f 781 798 797
f 781 782 798
f 782 799 798
f 782 783 799
f 783 800 799
f 783 784 800
f 784 785 800
f 784 769 785
f 785 802 801
f 785 786 802
f 786 803 802
f 786 787 803
f 787 804 803
f 787 788 804
f 788 805 804
f 788 789 805
f 789 806 805
f 789 790 806
f 790 807 806
f 790 791 807
f 791 808 807
f 791 792 808
f 792 809 808
f 792 793 809
f 793 810 809
f 793 794 810
f 794 811 810
f 794 795 811
f 795 812 811
f 795 796 812
f 796 813 812
f 796 797 813
f 797 814 813
f 797 798 814
f 798 815 814
f 798 799 815
f 799 816 815
f 799 800 816
f 800 801 816
f 800 785 801
f 801 818 817
f 801 802 818
f 802 819 818
f 802 803 819
f 803 820 819
f 803 804 820
f 804 821 820
f 804 805 821
f 805 822 821
f 805 806 822
f 806 823 822
f 806 807 823
f 807 824 823
f 807 808 824
f 808 825 824
f 808 809 825
f 809 826 825
f 809 810 826
f 810 827 826
f 810 811 827
f 811 828 827
f 811 812 828
f 812 829 828
f 812 813 829
f 813 830 829
f 813 814 830
f 814 831 830
f 814 815 831
f 815 832 831
f 815 816 832
f 816 817 832
f 816 801 817
f 817 834 833
f 817 818 834
f 818 835 834
f 818 819 835
f 819 836 835
f 819 820 836
f 820 837 836
f 820 821 837
f 821 838 837
f 821 822 838
f 822 839 838
f 822 823 839
f 823 840 839
f 823 824 840
f 824 841 840
f 824 825 841
f 825 842 841
f 825 826 842
f 826 843 842
f 826 827 843
f 827 844 843
f 827 828 844
f 828 845 844
f 828 829 845
f 829 846 845
f 829 830 846
f 830 847 846
f 830 831 847
f 831 848 847
f 831 832 848
f 832 833 848
f 832 817 833
f 833 850 849
f 833 834 850
f 834 851 850
f 834 835 851
f 835 852 851
f 835 836 852
f 836 853 852
f 836 837 853
f 837 854 853
f 837 838 854
f 838 855 854
f 838 839 855
f 839 856 855
f 839 840 856
f 840 857 856
f 840 841 857
f 841 858 857
f 841 842 858
f 842 859 858
f 842 843 859
f 843 860 859
f 843 844 860
f 844 861 860
f 844 845 861
f 845 862 861
f 845 846 862
f 846 863 862
f 846 847 863
f 847 864 863
f 847 848 864
f 848 849 864
f 848 833 849
f 849 866 865
f 849 850 866
f 850 867 866
f 850 851 867
f 851 868 867
f 851 852 868
f 852 869 868
f 852 853 869
f 853 870 869
f 853 854 870
f 854 871 870
f 854 855 871
f 855 872 871
f 855 856 872
f 856 873 872
f 856 857 873
f 857 874 873
f 857 858 874
f 858 875 874
f 858 859 875
f 859 876 875
f 859 860 876
f 860 877 876
f 860 861 877
f 861 878 877
f 861 862 878
f 862 879 878
f 862 863 879
f 863 880 879
f 863 864 880
f 864 865 880
f 864 849 865
f 865 882 881
f 865 866 882
f 866 883 882
f 866 867 883
f 867 884 883
f 867 868 884
f 868 885 884
f 868 869 885
f 869 886 885
f 869 870 886
f 870 887 886
f 870 871 887
f 871 888 887
f 871 872 888
f 872 889 888
f 872 873 889
f 873 890 889
f 873 874 890
f 874 891 890
f 874 875 891
f 875 892 891
f 875 876 892
f 876 893 892
f 876 877 893
f 877 894 893
f 877 878 894
f 878 895 894
f 878 879 895
f 879 896 895
f 879 880 896
f 880 881 896
f 880 865 881
f 881 898 897
f 881 882 898
f 882 899 898
f 882 883 899
f 883 900 899
f 883 884 900
f 884 901 900
f 884 885 901
f 885 902 901
f 885 886 902
f 886 903 902
f 886 887 903
f 887 904 903
f 887 888 904
f 888 905 904
f 888 889 905
f 889 906 905
f 889 890 906
f 890 907 906
f 890 891 907
f 891 908 907
f 891 892 908
f 892 909 908
f 892 893 909
f 893 910 909
f 893 894 910
f 894 911 910
f 894 895 911
f 895 912 911
f 895 896 912
f 896 897 912
f 896 881 897
f 897 914 913
f 897 898 914
f 898 915 914
f 898 899 915
f 899 916 915
f 899 900 916
f 900 917 916
f 900 901 917
f 901 918 917
f 901 902 918
f 902 919 918
f 902 903 919
f 903 920 919
f 903 904 920
f 904 921 920
f 904 905 921
f 905 922 921
f 905 906 922
f 906 923 922
f 906 907 923
f 907 924 923
f 907 908 924
f 908 925 924
f 908 909 925
f 909 926 925
f 909 910 926
f 910 927 926
f 910 911 927
f 911 928 927
f 911 912 928
f 912 913 928
f 912 897 913
f 913 930 929
f 913 914 930
f 914 931 930
f 914 915 931
f 915 932 931
f 915 916 932
f 916 933 932
f 916 917 933
f 917 934 933
f 917 918 934
f 918 935 934
f 918 919 935
f 919 936 935
f 919 920 936
f 920 937 936
f 920 921 937
f 921 938 937
f 921 922 938
f 922 939 938
f 922 923 939
f 923 940 939
f 923 924 940
f 924 941 940
f 924 925 941
f 925 942 941
f 925 926 942
f 926 943 942
f 926 927 943
f 927 944 943
f 927 928 944
f 928 929 944
f 928 913 929
f 929 946 945
f 929 930 946
f 930 947 946
f 930 931 947
f 931 948 947
f 931 932 948
f 932 949 948
f 932 933 949
f 933 950 949
f 933 934 950
f 934 951 950
f 934 935 951
f 935 952 951
f 935 936 952
f 936 953 952
f 936 937 953
f 937 954 953
f 937 938 954
f 938 955 954
f 938 939 955
f 939 956 955
f 939 940 956
f 940 957 956
f 940 941 957
f 941 958 957
f 941 942 958
f 942 959 958
f 942 943 959
f 943 960 959
f 943 944 960
f 944 945 960
f 944 929 945
f 961 1 2
f 962 946 945
f 961 2 3
f 962 947 946
f 961 3 4
f 962 948 947
f 961 4 5
f 962 949 948
f 961 5 6
f 962 950 949
f 961 6 7
f 962 951 950
f 961 7 8
f 962 952 951
f 961 8 9
f 962 953 952
f 961 9 10
f 962 954 953
f 961 10 11
f 962 955 954
f 961 11 12
f 962 956 955
f 961 12 13
f 962 957 956
f 961 13 14
f 962 958 957
f 961 14 15
f 962 959 958
f 961 15 16
f 962 960 959
f 961 16 1
f 962 945 960
